<svg width="1066" height="719" viewBox="0 0 1066 719" fill="none" xmlns="http://www.w3.org/2000/svg">
<path d="M748.459 90.3305C745.896 89.9155 741.176 89.9594 738.056 90.4575C730.96 91.6616 717.721 96.9495 710.17 101.635C707.008 103.569 704.277 105.139 704.049 105C703.897 104.908 703.787 103.379 703.968 101.714C704.245 97.4984 702.624 89.7243 700.951 86.8246C700.106 85.474 697.876 83.4873 695.9 82.2818C692.631 80.2879 691.837 80.2213 687.215 81.4731C681.001 83.1113 675.915 87.0036 671.142 93.8015C664.796 102.667 665.822 102.353 658.22 97.7162C648.718 91.9202 641.198 90.5694 635.339 93.677C629.742 96.5266 628.22 101.758 630.756 109.569C631.593 111.958 633.49 115.517 635.125 117.453C638.272 121.357 653.468 133.549 661.585 138.709C678.351 149.353 740.181 185.293 743.458 186.248C748.44 187.826 758.843 185.819 764.583 182.222C769.433 179.23 774.421 172.25 774.744 167.958C775.403 157.816 768.615 150.648 752.197 144.391C748.131 142.85 744.706 141.283 744.571 140.992C744.558 140.671 746.807 138.181 749.639 135.419C760.013 125.252 765.252 113.414 763.369 104.018C761.795 96.1682 757.2 91.9036 748.459 90.3305ZM756.841 102.751C760.619 110.066 755.38 121.904 743.364 133.053C737.578 138.606 737.038 139.32 737.051 141.521C737.239 144.976 737.771 145.301 751.402 150.483C759.459 153.519 761.376 154.479 764.484 157.419C768.746 161.376 769.909 165.113 768.378 169.503C766.645 174.397 762.724 177.747 756.324 179.689C745.99 182.781 749.034 184.117 707.255 158.737C686.912 146.432 664.956 133.353 658.356 129.64C644.926 122.075 640.724 118.363 637.082 111.339C635.877 109.039 635.019 105.487 635.187 103.502C635.321 100.034 635.46 99.8057 637.959 98.6157C642.497 96.477 647.589 97.704 656.711 103.268C662.564 106.839 665.258 108.064 666.284 107.751C667.111 107.42 670.239 104.003 673.218 99.9742C682.075 88.3602 688.782 84.204 693.875 87.3107C697.22 89.3509 698.968 98.4554 697.548 106.254C696.668 111.459 696.736 112.545 698.332 113.518C699.928 114.492 701.537 113.907 709.333 109.163C720.92 102.137 724.537 100.481 734.243 97.7357C746.029 94.4856 753.41 96.0646 756.841 102.751Z" fill="url(#paint0_linear_2503_621)"/>
<path d="M685.792 162.974C681.537 164.136 674.31 168.289 673.15 170.191C671.897 172.246 674.084 173.789 677.221 173.092C684.014 171.703 692.405 165.128 690.483 162.807C690.09 162.255 687.966 162.316 685.792 162.974Z" fill="url(#paint1_linear_2503_621)"/>
<path d="M714.202 182.913C713.053 183.257 710.246 184.781 707.76 186.292C699.609 191.447 699.392 195.907 707.514 192.51C715.589 189.188 721.505 180.687 714.202 182.913Z" fill="url(#paint2_linear_2503_621)"/>
<path d="M645.32 144.343C642.352 144.934 636.337 148.468 635.316 150.142C634.341 151.74 635.308 153.061 637.491 153.244C641.827 153.488 651.569 146.067 648.984 144.49C648.376 144.119 646.742 144.062 645.32 144.343Z" fill="url(#paint3_linear_2503_621)"/>
<path d="M675.341 191.051C672.554 191.857 668.662 193.45 666.683 194.643C663.766 196.518 663.319 197.08 663.767 198.398C664.498 200.619 667.306 200.974 671.777 199.63C676.049 198.268 680.936 194.359 681.412 192.04C681.842 189.797 680.896 189.637 675.341 191.051Z" fill="url(#paint4_linear_2503_621)"/>
<path d="M640.066 170.055C638.647 169.816 632.632 173.351 631.564 175.101C631.193 175.71 631.324 176.52 631.856 176.845C633.681 177.958 636.467 177.152 639.603 174.576C643.169 171.636 643.3 170.567 640.066 170.055Z" fill="url(#paint5_linear_2503_621)"/>
<path d="M368.602 117.877C338.91 123.275 332.803 144.931 355.153 165.676C370.226 179.593 395.825 192.145 415.057 195.006C422.334 196.047 433.119 195.461 438.577 193.705C446.633 191.169 451.636 184.536 450.467 178.033C448.647 168.213 436.043 158.523 419.345 154.231C408.885 151.564 392.057 151.304 391.212 153.84C390.888 154.816 392.187 155.011 403.102 155.856C414.082 156.702 422.269 158.783 430.39 162.75C440.461 167.692 446.308 174.196 446.308 180.439C446.308 187.072 437.472 191.689 424.608 191.689C403.362 191.689 374.125 178.618 356.972 161.449C348.851 153.32 345.992 148.248 345.992 141.614C345.927 138.103 346.252 136.867 347.746 134.266C356.323 119.633 387.899 117.227 424.868 128.413C445.074 134.461 459.758 140.639 471.907 148.053C480.484 153.32 487.241 156.052 482.888 152.475C479.379 149.548 463.461 139.793 457.029 136.607C440.591 128.413 415.512 120.544 397.515 117.877C389.263 116.707 375.034 116.707 368.602 117.877Z" fill="url(#paint6_linear_2503_621)"/>
<path d="M388.809 139.729C383.546 140.51 378.478 143.111 376.854 145.777C374.84 149.029 375.035 153.646 377.374 157.288C381.532 163.921 393.552 170.945 406.156 174.131C412.263 175.692 422.529 176.603 423.179 175.562C423.828 174.522 422.919 174.196 417.331 173.416C402.063 171.335 382.117 160.54 379.972 153.256C378.868 149.679 379.972 147.663 384.196 145.582C386.924 144.216 388.549 143.956 395.891 143.696C405.052 143.371 410.574 144.151 422.269 147.208C436.823 151.045 454.04 158.589 465.41 166.132C473.142 171.205 482.238 180.114 484.902 185.122C488.41 191.69 487.111 198.063 481.263 203.071C469.504 213.151 445.399 215.817 416.357 210.159C401.673 207.298 396.93 205.607 370.422 193.641C367.043 192.145 364.184 191.105 363.989 191.3C363.015 192.21 364.899 193.901 371.006 197.478C383.676 205.022 400.504 211.135 416.681 214.061C441.566 218.679 461.902 217.508 475.871 210.615C482.108 207.493 486.006 204.307 488.41 200.274C489.905 197.673 490.165 196.503 490.165 192.341C490.165 188.243 489.84 186.813 488.215 183.561C485.552 178.228 475.741 168.474 467.814 163.206C443.775 147.338 407.975 136.673 388.809 139.729Z" fill="url(#paint7_linear_2503_621)"/>
<path d="M332.283 170.944C331.373 172.31 332.738 177.512 335.207 182.455C339.105 190.194 347.551 199.623 347.551 196.177C347.551 195.721 345.472 192.21 342.938 188.308C340.405 184.471 337.221 178.813 335.792 175.756C334.362 172.7 333.063 170.229 332.933 170.229C332.803 170.229 332.478 170.554 332.283 170.944Z" fill="url(#paint8_linear_2503_621)"/>
<path d="M505.108 185.188C504.913 185.513 505.238 187.464 505.823 189.415C506.797 192.797 506.797 193.317 505.758 196.439C505.173 198.324 503.808 201.316 502.769 203.137C500.69 206.844 500.365 208.6 501.859 208.6C503.029 208.6 506.342 204.177 508.421 199.82C510.63 195.203 510.501 191.431 508.032 187.594C506.017 184.342 505.758 184.147 505.108 185.188Z" fill="url(#paint9_linear_2503_621)"/>
<path d="M768.132 252.115C767.05 252.803 762.809 256.074 758.761 259.339L751.361 265.257L746.282 263.157C739.423 260.337 729.245 257.437 726.388 257.537C724.895 257.589 723.677 258.087 722.927 258.959C721.179 261.037 722.687 263.262 732.311 272.688C737.091 277.402 740.877 281.565 740.763 282.024C740.646 282.419 737.998 284.788 734.9 287.304C731.802 289.819 728.275 293.066 727.023 294.476C724.772 297.027 724.772 297.027 724.64 304.449C724.413 316.626 720.003 331.876 713.61 342.445C705.068 356.667 689.817 372.36 672.817 384.534C665.144 390.072 663.201 392.157 663.981 394.017C664.971 396.325 671.918 394.196 690.097 386.015C703.218 380.093 723.016 368.016 736.12 357.864C749.414 347.576 762.112 333.209 766.828 323.024C767.614 321.304 768.977 319.37 769.803 318.821C771.26 317.729 772.087 315.357 774.842 302.963L776.022 297.651L779.766 296.87C786.731 295.261 793.861 292.801 795.182 291.518C795.936 290.776 796.478 289.521 796.448 288.676C796.381 286.726 794.656 285.745 783.383 281.257C778.768 279.4 774.674 277.591 774.34 277.342C773.937 276.966 773.871 273.194 774.203 267.781C774.705 257.938 774.012 252.952 772.014 251.59C770.482 250.537 770.482 250.537 768.132 252.115ZM770.477 261.599C770.574 264.394 770.484 269.277 770.268 272.408L769.948 278.146L771.894 279.9C773.032 280.836 777.396 282.962 781.548 284.575C789.326 287.623 791.773 288.839 791.209 289.444C791.019 289.581 787.291 290.817 782.847 292.013C774.546 294.449 772.381 295.761 771.847 299.098C770.926 304.401 769.086 313.184 768.603 314.242C768.057 315.367 767.925 315.307 766.697 313.658C765.947 312.643 763.604 308.82 761.46 305.12C759.315 301.421 756.715 297.672 755.704 296.666C753.489 294.661 750.95 294.554 741.457 296.381C734.675 297.658 729.812 298.023 729.785 297.243C729.776 296.983 733.178 293.871 737.349 290.407C743.793 285.042 744.921 283.832 744.869 282.337C744.79 280.062 742.615 277.34 734.731 269.35C729.205 263.751 727.845 262.041 728.884 262.005C729.079 261.998 734.142 263.644 740.061 265.586L750.85 269.245L755.172 266.426C757.525 264.913 761.646 261.906 764.176 259.866C766.768 257.759 769.246 256.111 769.575 256.229C770.034 256.344 770.371 258.544 770.477 261.599ZM748.952 306.271C741.389 331.783 724.686 354.358 701.452 370.458C695.677 374.498 685.854 379.916 685.824 379.071C685.82 378.941 689.095 375.899 693.063 372.247C702.265 363.923 711.146 353.853 715.953 346.268C723.41 334.49 727.93 320.538 728.038 308.691L728.186 301.723L733.118 301.487C735.845 301.392 740.702 300.832 743.868 300.267C747.098 299.699 749.951 299.469 750.22 299.72C750.551 299.904 749.941 302.918 748.952 306.271ZM757.345 306.435C758.176 307.903 760.237 311.085 761.881 313.5C763.59 315.913 764.966 318.078 764.973 318.273C765 319.053 759.754 327.109 755.283 333.121C743.792 348.552 724.119 364.204 699.737 377.22C687.353 383.768 682.867 385.616 691.402 380.569C706.247 371.853 715.619 364.695 725.604 354.586C739.043 340.974 748.947 322.93 752.506 305.627C753.447 300.909 753.444 300.844 754.665 302.299C755.277 303.058 756.511 304.902 757.345 306.435Z" fill="url(#paint10_linear_2503_621)"/>
<path d="M708.127 280.168C708.006 280.432 707.755 286.297 707.603 293.135C707.232 308.635 705.904 319.028 702.616 331.051C699.906 340.971 699.654 343.062 701.017 343.014C702.9 342.949 705.646 337.778 708.399 329.092C710.629 322.182 711.536 316.489 711.847 306.718C712.35 293.165 710.09 276.781 708.127 280.168Z" fill="url(#paint11_linear_2503_621)"/>
<path d="M789.106 305.592C788.616 306.455 787.231 309.626 785.971 312.663C781.356 323.886 773.516 335.872 762.516 348.553C756.513 355.399 755.477 357.388 757.814 357.306C759.438 357.25 767.453 350.334 772.015 345.034C776.14 340.271 783.106 329.356 785.946 323.141C789.693 315.007 792.367 304.047 790.549 304.11C790.225 304.121 789.598 304.794 789.106 305.592Z" fill="url(#paint12_linear_2503_621)"/>
<path d="M685.79 357.535C683.039 360.689 682.583 362.527 684.466 362.461C685.7 362.418 690.25 356.794 690.2 355.364C690.141 353.674 688.35 354.518 685.79 357.535Z" fill="url(#paint13_linear_2503_621)"/>
<path d="M733.674 367.907C730.482 369.579 728.451 371.017 728.474 371.666C728.521 373.031 729.815 372.856 734.747 370.732C739.422 368.683 741.698 366.846 741.011 365.764C740.258 364.684 739.226 364.915 733.674 367.907Z" fill="url(#paint14_linear_2503_621)"/>
<rect x="376" y="575" width="365" height="80" rx="40" fill="white" fill-opacity="0.1"/>
<rect x="376" y="575" width="365" height="80" rx="40" stroke="url(#paint15_radial_2503_621)" stroke-width="2"/>
<rect x="385.25" y="584.25" width="207.5" height="61.5" rx="30.75" fill="#FD853A"/>
<rect x="385.25" y="584.25" width="207.5" height="61.5" rx="30.75" stroke="#D0D5DD" stroke-width="0.5"/>
<path d="M426.459 605.274C427.563 605.274 428.566 605.525 429.469 606.027C430.381 606.52 431.096 607.21 431.615 608.097C432.133 608.983 432.392 609.97 432.392 611.057C432.392 612.697 431.824 614.064 430.686 615.16C429.549 616.255 428.14 616.803 426.459 616.803H421.98V623H418.932V605.274H426.459ZM426.409 613.93C427.22 613.93 427.897 613.658 428.441 613.115C428.984 612.563 429.256 611.877 429.256 611.057C429.256 610.221 428.984 609.527 428.441 608.975C427.897 608.423 427.22 608.147 426.409 608.147H421.98V613.93H426.409ZM440.036 623.314C438.037 623.314 436.368 622.657 435.03 621.344C433.692 620.031 433.023 618.4 433.023 616.452C433.023 614.503 433.692 612.872 435.03 611.559C436.368 610.246 438.037 609.59 440.036 609.59C441.34 609.59 442.528 609.891 443.598 610.493C444.677 611.087 445.522 611.91 446.132 612.964C446.743 614.01 447.048 615.172 447.048 616.452C447.048 617.731 446.743 618.898 446.132 619.952C445.522 620.997 444.677 621.821 443.598 622.423C442.528 623.017 441.34 623.314 440.036 623.314ZM437.138 619.362C437.916 620.14 438.882 620.529 440.036 620.529C441.19 620.529 442.147 620.14 442.908 619.362C443.678 618.576 444.063 617.606 444.063 616.452C444.063 615.289 443.678 614.319 442.908 613.541C442.147 612.755 441.19 612.362 440.036 612.362C438.882 612.362 437.916 612.755 437.138 613.541C436.36 614.327 435.971 615.298 435.971 616.452C435.971 617.606 436.36 618.576 437.138 619.362ZM456.222 609.69H456.711V612.651H456.222C454.951 612.651 453.951 613.01 453.224 613.729C452.504 614.44 452.145 615.406 452.145 616.627V623H449.26V609.903H452.145V611.823C453.19 610.401 454.549 609.69 456.222 609.69ZM466.55 612.513H462.849V618.71C462.849 619.312 463.012 619.768 463.338 620.077C463.673 620.378 464.145 620.529 464.756 620.529C465.333 620.529 465.931 620.378 466.55 620.077V622.774C465.839 623.134 465.04 623.314 464.154 623.314C462.774 623.314 461.733 622.95 461.03 622.222C460.328 621.495 459.976 620.479 459.976 619.174V612.513H457.756V609.903H459.976V606.504H462.849V609.903H466.55V612.513ZM474.682 606.842C473.394 606.842 472.75 607.44 472.75 608.636V609.903H476.238V612.513H472.75V623H469.878V612.513H467.657V609.903H469.878V608.461C469.878 607.114 470.229 606.069 470.931 605.324C471.634 604.572 472.675 604.195 474.055 604.195C474.925 604.195 475.715 604.375 476.426 604.735V607.281C475.907 606.989 475.326 606.842 474.682 606.842ZM483.68 623.314C481.682 623.314 480.013 622.657 478.675 621.344C477.337 620.031 476.668 618.4 476.668 616.452C476.668 614.503 477.337 612.872 478.675 611.559C480.013 610.246 481.682 609.59 483.68 609.59C484.985 609.59 486.173 609.891 487.243 610.493C488.322 611.087 489.167 611.91 489.777 612.964C490.388 614.01 490.693 615.172 490.693 616.452C490.693 617.731 490.388 618.898 489.777 619.952C489.167 620.997 488.322 621.821 487.243 622.423C486.173 623.017 484.985 623.314 483.68 623.314ZM480.782 619.362C481.56 620.14 482.526 620.529 483.68 620.529C484.834 620.529 485.792 620.14 486.553 619.362C487.322 618.576 487.707 617.606 487.707 616.452C487.707 615.289 487.322 614.319 486.553 613.541C485.792 612.755 484.834 612.362 483.68 612.362C482.526 612.362 481.56 612.755 480.782 613.541C480.005 614.327 479.616 615.298 479.616 616.452C479.616 617.606 480.005 618.576 480.782 619.362ZM492.904 623V604.497H495.79V623H492.904ZM500.259 607.683C499.74 607.683 499.306 607.507 498.954 607.156C498.603 606.805 498.427 606.374 498.427 605.864C498.427 605.337 498.603 604.902 498.954 604.559C499.306 604.216 499.74 604.045 500.259 604.045C500.786 604.045 501.225 604.216 501.576 604.559C501.927 604.902 502.103 605.337 502.103 605.864C502.103 606.382 501.927 606.817 501.576 607.169C501.225 607.511 500.786 607.683 500.259 607.683ZM498.816 623V609.903H501.702V623H498.816ZM510.951 623.314C508.952 623.314 507.283 622.657 505.945 621.344C504.607 620.031 503.938 618.4 503.938 616.452C503.938 614.503 504.607 612.872 505.945 611.559C507.283 610.246 508.952 609.59 510.951 609.59C512.255 609.59 513.443 609.891 514.513 610.493C515.592 611.087 516.437 611.91 517.047 612.964C517.658 614.01 517.963 615.172 517.963 616.452C517.963 617.731 517.658 618.898 517.047 619.952C516.437 620.997 515.592 621.821 514.513 622.423C513.443 623.017 512.255 623.314 510.951 623.314ZM508.053 619.362C508.831 620.14 509.796 620.529 510.951 620.529C512.105 620.529 513.062 620.14 513.823 619.362C514.593 618.576 514.977 617.606 514.977 616.452C514.977 615.289 514.593 614.319 513.823 613.541C513.062 612.755 512.105 612.362 510.951 612.362C509.796 612.362 508.831 612.755 508.053 613.541C507.275 614.327 506.886 615.298 506.886 616.452C506.886 617.606 507.275 618.576 508.053 619.362Z" fill="white"/>
<path d="M531.25 623.75L548.75 606.25" stroke="white" stroke-width="2" stroke-linecap="round" stroke-linejoin="round"/>
<path d="M531.25 606.25H548.75V623.75" stroke="white" stroke-width="2" stroke-linecap="round" stroke-linejoin="round"/>
<path d="M635.529 605.274H637.122V623H635.529V614.833H624.351V623H622.783V605.274H624.351V613.341H635.529V605.274ZM641.804 606.817C641.503 606.817 641.248 606.713 641.039 606.504C640.83 606.295 640.726 606.04 640.726 605.738C640.726 605.446 640.83 605.199 641.039 604.998C641.257 604.789 641.512 604.685 641.804 604.685C642.114 604.685 642.373 604.789 642.582 604.998C642.8 605.199 642.908 605.446 642.908 605.738C642.908 606.048 642.8 606.307 642.582 606.516C642.373 606.717 642.114 606.817 641.804 606.817ZM641.064 623V609.903H642.557V623H641.064ZM652.672 609.69H653.061V611.233H652.672C651.166 611.233 649.966 611.685 649.071 612.588C648.185 613.491 647.742 614.708 647.742 616.238V623H646.249V609.903H647.742V612.651C648.227 611.714 648.892 610.986 649.736 610.468C650.589 609.949 651.568 609.69 652.672 609.69ZM667.29 616.452C667.29 616.611 667.273 616.824 667.24 617.091H655.209C655.368 618.513 655.962 619.676 656.991 620.579C658.028 621.474 659.295 621.921 660.792 621.921C661.837 621.921 662.795 621.695 663.664 621.244C664.534 620.784 665.212 620.177 665.697 619.425L666.75 620.303C666.115 621.24 665.27 621.976 664.216 622.511C663.163 623.046 662 623.314 660.729 623.314C658.705 623.314 657.016 622.657 655.661 621.344C654.314 620.023 653.641 618.384 653.641 616.427C653.641 614.478 654.294 612.851 655.598 611.547C656.903 610.242 658.529 609.59 660.478 609.59C662.418 609.59 664.037 610.246 665.333 611.559C666.638 612.864 667.29 614.495 667.29 616.452ZM664.016 612.312C663.037 611.425 661.85 610.982 660.453 610.982C659.056 610.982 657.873 611.425 656.903 612.312C655.933 613.198 655.368 614.344 655.209 615.749H665.722C665.563 614.344 664.994 613.198 664.016 612.312ZM691.897 609.59C693.411 609.59 694.624 610.045 695.535 610.957C696.447 611.86 696.902 613.065 696.902 614.57V623H695.41V614.984C695.41 613.788 695.05 612.83 694.331 612.111C693.62 611.392 692.671 611.032 691.483 611.032C690.245 611.032 689.25 611.4 688.498 612.136C687.745 612.864 687.368 613.83 687.368 615.034V623H685.888V614.984C685.888 613.796 685.524 612.843 684.797 612.124C684.078 611.396 683.128 611.032 681.949 611.032C680.711 611.032 679.712 611.4 678.951 612.136C678.198 612.864 677.822 613.83 677.822 615.034V623H676.329V609.903H677.822V612.061C678.29 611.266 678.913 610.656 679.691 610.229C680.469 609.803 681.368 609.59 682.388 609.59C683.484 609.59 684.433 609.845 685.236 610.355C686.047 610.857 686.633 611.559 686.992 612.462C687.435 611.551 688.079 610.844 688.924 610.342C689.769 609.841 690.76 609.59 691.897 609.59ZM713.227 616.452C713.227 616.611 713.21 616.824 713.177 617.091H701.146C701.305 618.513 701.899 619.676 702.927 620.579C703.965 621.474 705.232 621.921 706.729 621.921C707.774 621.921 708.732 621.695 709.601 621.244C710.471 620.784 711.148 620.177 711.634 619.425L712.687 620.303C712.052 621.24 711.207 621.976 710.153 622.511C709.099 623.046 707.937 623.314 706.666 623.314C704.642 623.314 702.953 622.657 701.598 621.344C700.251 620.023 699.578 618.384 699.578 616.427C699.578 614.478 700.23 612.851 701.535 611.547C702.84 610.242 704.466 609.59 706.415 609.59C708.355 609.59 709.973 610.246 711.27 611.559C712.574 612.864 713.227 614.495 713.227 616.452ZM709.953 612.312C708.974 611.425 707.786 610.982 706.39 610.982C704.993 610.982 703.81 611.425 702.84 612.312C701.87 613.198 701.305 614.344 701.146 615.749H711.659C711.5 614.344 710.931 613.198 709.953 612.312Z" fill="white"/>
<path d="M237.865 343.041C235.137 348.042 235.562 353.981 239.178 360.912C246.812 375.445 269.804 386.637 291.858 386.496C298.06 386.446 297.841 386.363 297.531 388.827C297.131 391.836 299.259 393.351 303.209 392.837C305.791 392.423 306.321 392.604 308.564 394.836C311.928 398.185 314.292 403.373 315.36 409.651C316.13 414.622 316.089 416.013 314.923 431.1C314.178 440.201 314.557 443.291 316.844 447.813C320.416 455.016 326.363 457.952 336.319 457.448C338.442 457.286 345.329 456.184 351.649 454.849C366.637 451.773 368.54 451.528 373.414 451.632C378.483 451.674 383.015 453.865 387.258 458.104C391.744 462.569 394.364 467.333 397.366 476.305C399.401 482.37 400.123 483.933 401.03 484.082C402.534 484.283 402.529 482.605 401.023 476.162C399.087 467.784 397.278 464.039 392.402 457.693C388.679 452.841 387.429 451.657 384.485 450.008C377.069 445.805 372.052 445.724 353.983 449.41C338.368 452.615 333.572 453.176 328.794 452.203C323.979 451.177 321.388 448.794 319.545 443.553C318.318 439.951 318.303 434.917 319.558 421.848C320.615 410.842 318.336 401.43 313.105 395.258C311.453 393.402 309.596 391.373 309.021 390.906C308.112 390.197 308.096 389.728 308.962 388.706C310.693 386.663 310.89 384.04 309.411 381.979C308.159 380.236 308.121 380.183 311.816 374.969C325.18 355.928 330.538 332.867 324.444 320.59C319.11 309.93 308.565 308.054 297.927 315.851C292.159 320.072 288.194 325.801 284.451 335.293C282.725 339.574 281.013 343.205 280.583 343.274C280.137 343.433 276.976 342.261 273.458 340.703C257.724 333.827 242.375 334.84 237.865 343.041ZM250.19 341.157C256.072 340.216 261.409 341.188 270.349 344.617C274.993 346.406 279.538 347.946 280.513 347.967C283.551 348.188 285.464 346.174 287.285 341.024C289.445 335.23 293.141 328.013 295.543 325.008C298.329 321.647 303.946 317.774 307.291 316.974C316.124 314.795 321.621 321.337 321.664 333.874C321.711 344.969 315.686 362.423 307.622 374.698C305.892 377.301 303.889 379.859 303.203 380.352C301.462 381.602 289.094 381.755 281.823 380.651C271.014 378.964 260.659 374.79 252.316 368.851C248.099 365.874 242.714 358.373 241.568 353.992C239.773 347.035 242.925 342.29 250.19 341.157Z" fill="url(#paint16_linear_2503_621)"/>
<path d="M417.147 559.241C415.299 558.825 413.618 559.873 414.424 560.99C415.069 561.995 419.404 562.479 420.484 561.726C421.218 561.127 419.336 559.737 417.147 559.241Z" fill="url(#paint17_linear_2503_621)"/>
<path d="M343.375 513.849C342.88 514.218 341.908 515.839 341.24 517.593C339.358 522.226 339.028 522.472 335.412 522.092C329.836 521.456 329.44 523.162 334.111 527.368L336.942 529.897L335.416 534.699C334.531 537.332 334.008 539.901 334.286 540.411C334.869 541.848 338.349 540.945 342.008 538.422L345.322 536.054L347.342 537.7C348.814 538.884 349.655 539.154 350.528 538.811C351.619 538.382 351.671 537.625 351.144 534.404C350.456 530.278 350.742 529.527 353.97 526.941C356.868 524.601 356.552 523.35 352.915 523.114C351.44 522.958 349.895 522.674 349.575 522.451C349.202 522.191 348.251 520.26 347.465 518.206C345.84 514.061 344.8 512.94 343.375 513.849ZM345.351 521.013L345.908 522.828L344.289 522.651C342.851 522.441 342.728 522.277 343.104 520.715C343.342 519.692 343.612 518.85 343.723 518.69C344.095 518.156 344.848 519.236 345.351 521.013ZM346.153 529.975C344.889 531.789 344.798 531.805 342.773 530.393C341.387 529.427 340.773 528.603 340.969 527.868C341.424 525.965 342.046 525.527 344.171 525.66C347.052 525.845 347.827 527.574 346.153 529.975ZM337.761 526.108C337.575 526.374 337.176 526.493 336.856 526.27C336.59 526.084 336.509 525.631 336.695 525.365C336.918 525.045 337.334 525.017 337.6 525.203C337.92 525.426 337.984 525.788 337.761 526.108ZM340.774 535.421C337.95 537.654 337.417 537.283 338.818 534.137C339.576 532.367 339.794 532.281 341.02 533.135C342.3 534.027 342.279 534.171 340.774 535.421Z" fill="url(#paint18_linear_2503_621)"/>
<path d="M388.455 546.776C387.145 546.497 386.006 546.654 385.905 547.139C385.439 548.717 391.539 550.987 393.151 549.811C394.049 549.09 391.363 547.376 388.455 546.776Z" fill="url(#paint19_linear_2503_621)"/>
<path d="M374.937 540.604C372.61 539.853 371.726 539.872 371.349 540.639C370.856 541.802 371.479 542.157 376.615 543.992C378.639 544.611 380.167 544.804 380.502 544.324C381.171 543.363 379.002 541.931 374.937 540.604Z" fill="url(#paint20_linear_2503_621)"/>
<path d="M358.299 533.684C355.502 532.924 353.783 533.232 354.025 534.59C354.202 535.585 363.481 538.406 364.38 537.685C365.279 536.964 361.633 534.581 358.299 533.684Z" fill="url(#paint21_linear_2503_621)"/>
<path d="M350.92 540.75C349.973 541.199 351.763 545.221 353.757 547.246C357.533 551.146 356.918 546.119 353.057 542.001C352.246 541.119 351.356 540.578 350.92 540.75Z" fill="url(#paint22_linear_2503_621)"/>
<path d="M238.655 463.772C238.357 464.199 237.759 466.081 237.304 467.983C236.849 469.886 236.325 471.661 236.139 471.927C235.953 472.194 234.292 472.305 232.402 472.176C227.524 471.789 227.153 473.116 231.301 476.483L234.527 479.127L233.309 483.827C232.442 487.345 232.375 488.804 233.154 489.505C234.284 490.61 235.656 489.664 238.259 485.93L240.007 483.422L243.956 485.937C249.115 489.216 250.067 488.531 247.674 483.217C246.728 481.051 245.995 479.035 246.021 478.656C246.047 478.278 247.382 477.385 249.021 476.625C253.5 474.515 252.625 473.271 246.539 472.914L242.758 472.657L241.735 469.011C241.184 466.962 240.899 465.098 241.047 464.885C241.196 464.671 240.865 464.124 240.279 463.715C239.692 463.306 238.952 463.345 238.655 463.772ZM240.621 478.222C239.234 479.872 238.713 479.825 238.406 478.105C238.137 476.332 239.77 475.013 240.863 476.171C241.391 476.777 241.323 477.443 240.621 478.222ZM243.769 482.001C243.743 482.38 243.45 482.572 243.184 482.386C242.864 482.163 242.783 481.711 242.969 481.444C243.192 481.124 243.448 480.985 243.554 481.059C243.714 481.171 243.832 481.57 243.769 482.001Z" fill="url(#paint23_linear_2503_621)"/>
<path d="M319.718 519.954C317.199 519.704 317.68 520.832 321.145 523.247C323.063 524.585 324.758 525.449 324.907 525.235C325.985 523.688 322.508 520.155 319.718 519.954Z" fill="url(#paint24_linear_2503_621)"/>
<path d="M307.428 512.815C306.107 512.211 305.063 512.118 304.548 512.631C303.83 513.32 304.091 513.74 306.277 515.263C307.663 516.229 309.48 517.257 310.284 517.58C312.021 518.157 313.148 516.881 311.709 515.878C311.122 515.469 310.45 514.842 310.098 514.438C309.8 514.072 308.59 513.308 307.428 512.815Z" fill="url(#paint25_linear_2503_621)"/>
<path d="M381.822 567.202L378.613 568.057L375.893 565.368C372.416 561.835 369.282 559.968 368.325 560.887C367.937 561.33 367.851 563.727 368.228 566.367L368.794 571.122L365.91 571.965C364.313 572.438 362.802 573.129 362.579 573.449C362.059 574.196 364.137 575.645 367.696 577.015L370.594 578.084L371.449 582.881C372.663 589.434 373.755 589.799 377.229 584.928L379.885 581.23L382.378 581.858C385.803 582.739 386.615 581.006 384.341 577.677C382.297 574.588 382.264 573.613 384.458 570.465C386.837 567.051 385.957 566.041 381.822 567.202ZM374.727 568.519C375.122 569.429 375.011 569.589 373.563 569.848C372.078 570.161 372.009 570.033 371.589 567.68L371.101 565.199L372.7 566.314C373.606 566.945 374.486 567.955 374.727 568.519ZM378.761 573.867C378.873 574.5 378.582 575.486 378.099 576.18C377.02 577.727 374.128 577.218 373.087 575.303C372.275 573.627 372.849 572.918 375.367 572.373C377.613 571.878 378.47 572.238 378.761 573.867ZM375.632 581.992C374.851 583.112 374.798 583.075 374.455 581.409C374.176 580.104 374.329 579.657 374.995 579.724C376.31 579.769 376.562 580.658 375.632 581.992Z" fill="url(#paint26_linear_2503_621)"/>
<path d="M289.009 501.404C288.364 501.192 287.657 501.413 287.428 501.967C287.068 502.825 287.526 503.304 289.733 504.683C292.867 506.55 294.523 506.674 293.855 505.019C293.427 503.928 291.012 502.166 289.009 501.404Z" fill="url(#paint27_linear_2503_621)"/>
<path d="M272.275 491.326C271.95 491.337 271.455 491.706 271.158 492.133C270.823 492.613 271.58 493.458 274.086 495.204C277.497 497.581 279.51 497.875 278.703 495.965C278.222 494.837 273.126 491.126 272.275 491.326Z" fill="url(#paint28_linear_2503_621)"/>
<path d="M328.443 532.772C326.011 533.535 324.996 534.65 326.062 535.393C326.968 536.025 330.758 535.019 331.501 533.952C332.357 532.725 330.657 532.096 328.443 532.772Z" fill="url(#paint29_linear_2503_621)"/>
<path d="M359.417 554.123C358.636 555.244 362.017 561.643 363.193 561.432C364.551 561.189 364.345 558.984 362.775 556.464C361.222 554.034 360.049 553.216 359.417 554.123Z" fill="url(#paint30_linear_2503_621)"/>
<path d="M258.452 484.23C257.13 483.626 256.14 483.57 255.805 484.05C254.615 485.757 261.335 489.41 262.845 487.926C263.727 487.114 262.576 486.153 258.452 484.23Z" fill="url(#paint31_linear_2503_621)"/>
<path d="M319.051 536.135C316.156 536.654 312.746 538.478 312.907 539.383C313.229 541.193 320.494 539.519 322.093 537.225C323.06 535.838 322.218 535.568 319.051 536.135Z" fill="url(#paint32_linear_2503_621)"/>
<path d="M248.102 494.533C247.544 495.333 248.498 498.852 249.462 499.286C251.034 499.985 251.692 498.7 250.597 496.748C249.454 494.524 248.623 493.786 248.102 494.533Z" fill="url(#paint33_linear_2503_621)"/>
<path d="M356.051 570.088C352.713 570.218 354.032 572.644 357.44 572.641C358.377 572.66 359.319 572.444 359.542 572.124C360.026 571.431 357.675 570.03 356.051 570.088Z" fill="url(#paint34_linear_2503_621)"/>
<path d="M346.315 568.376C343.674 567.962 341.557 569.181 343.049 570.221C344.488 571.225 349.563 571.67 350.158 570.816C350.902 569.749 349.426 568.8 346.315 568.376Z" fill="url(#paint35_linear_2503_621)"/>
<path d="M252.447 504.775C251.575 505.118 252.281 510.922 253.347 511.665C254.573 512.519 255.432 510.264 254.684 508.157C253.528 504.815 253.267 504.395 252.447 504.775Z" fill="url(#paint36_linear_2503_621)"/>
<path d="M298.791 541.911C295.257 542.777 294.087 543.547 294.621 544.712C294.878 545.367 303.314 543.716 303.909 542.862C304.764 541.635 301.963 541.109 298.791 541.911Z" fill="url(#paint37_linear_2503_621)"/>
<path d="M254.611 519.284C253.867 520.351 254.896 524.556 256.085 525.464C257.524 526.467 258.081 524.873 257.347 522.063C256.613 519.252 255.466 518.057 254.611 519.284Z" fill="url(#paint38_linear_2503_621)"/>
<path d="M312.462 560.475C308.526 559.873 306.722 560.756 308.855 562.242C310.4 563.319 317.643 564.404 318.579 563.629C319.642 562.785 316.451 561.115 312.462 560.475Z" fill="url(#paint39_linear_2503_621)"/>
<path d="M285.624 545.577C282.228 545.905 278.419 547.848 278.661 549.206C278.902 550.563 279.642 550.524 284.368 548.744C287.22 547.72 288.427 546.897 288.314 546.263C288.201 545.63 287.376 545.451 285.624 545.577Z" fill="url(#paint40_linear_2503_621)"/>
<path d="M297.867 556.646C292.732 555.605 290.89 555.748 291.851 557.21C293.057 559.002 303.208 560.686 303.259 559.136C303.337 558.002 302.479 557.642 297.867 556.646Z" fill="url(#paint41_linear_2503_621)"/>
<path d="M267.215 540.515L264.746 541.331L262.421 538.759C261.188 537.345 259.562 535.815 258.816 535.295C256.843 533.92 255.713 536.224 256.427 539.972L257.029 543.086L253.281 543.804C250.929 544.225 249.327 544.932 249.078 545.63C248.606 546.649 249.011 547.09 253.227 549.79L257.816 552.751L257.639 555.164C256.924 564.257 260.245 566.651 263.039 559.007L264.226 555.712L265.835 556.358C270.571 558.312 271.253 558.47 271.774 557.723C272.071 557.296 271.306 555.098 270.073 552.891C267.504 548.168 267.429 547.481 269.288 544.813C272.077 540.812 271.334 539.264 267.215 540.515ZM260.797 542.224C260.611 542.491 260.318 542.684 260.212 542.609C260.052 542.498 259.971 542.045 259.997 541.667C260.06 541.236 260.316 541.097 260.582 541.282C260.902 541.505 261.02 541.904 260.797 542.224ZM263.765 546.829C263.877 547.463 263.363 548.769 262.656 549.783L261.318 551.704L260.802 548.807C260.367 546.364 260.521 545.916 261.59 545.631C263.096 545.175 263.507 545.381 263.765 546.829ZM257.207 548.284C257.054 548.732 256.388 548.664 255.535 548.07C254.256 547.178 254.224 546.997 255.293 546.712C256.672 546.325 257.541 547.01 257.207 548.284Z" fill="url(#paint42_linear_2503_621)"/>
<path d="M279.894 551.411C277.45 551.055 275.849 552.556 277.778 553.425C279.814 554.368 285.006 555.212 285.415 554.625C285.973 553.825 282.573 551.772 279.894 551.411Z" fill="url(#paint43_linear_2503_621)"/>
<path d="M793.216 615.256C795.513 623.795 799.983 631.082 807.484 638.2C814.229 644.601 818.247 646.981 826.685 649.615C831.508 651.146 834.091 651.447 841.627 651.253C850.265 651.031 850.911 651.107 853.858 653.008C865.23 660.486 885.453 660.15 905.702 652.226C923.995 645.043 948.803 628.726 961.869 615.24C966.344 610.619 967.321 609.307 967.112 608.393C966.654 606.703 965.705 607.325 958.293 613.907C941.051 629.431 921.023 642.223 903.545 648.925C890.166 654.143 876.513 655.966 866.206 653.978C862.091 653.118 855.448 650.576 855.382 649.796C855.374 649.52 857.317 648.229 859.672 646.881C864.698 643.947 866.981 641.635 869.079 637.535C871.263 633.249 870.967 629.027 868.214 625.787C865.369 622.55 863.737 621.718 860.101 621.582C855.959 621.412 852.285 623.3 848.987 627.247C844.621 632.509 843.671 638.235 846.165 643.826C846.849 645.372 847.167 646.927 846.809 647.304C845.915 648.246 835.796 648.139 830.986 647.067C816.974 644.071 803.889 632.729 797.147 617.821C795.777 614.73 794.33 612.192 794.007 612.155C792.805 611.91 792.599 612.789 793.216 615.256ZM855.033 626.356C857.795 624.768 862.765 624.916 864.652 626.706C868.331 630.198 867.728 635.179 862.851 640.224C858.826 644.466 852.914 646.917 851.027 645.126C848.668 642.888 847.799 637.853 849.029 634.005C850.352 630.155 851.776 628.371 855.033 626.356Z" fill="url(#paint44_linear_2503_621)"/>
<path d="M888.373 642.05C889.599 643.214 897.132 642.928 903.119 641.533C911.022 639.629 917.051 636.393 925.69 629.274C929.65 626.046 930.982 624.264 930.038 623.369C929.284 622.653 927.194 623.626 921.182 627.505C910.468 634.355 901.967 638.022 893.311 639.302C888.319 640.029 887.052 640.797 888.373 642.05Z" fill="url(#paint45_linear_2503_621)"/>
<path d="M977.473 558.929C977.644 560.166 979.722 563.929 983.852 570.535L986.736 575.243L982.46 585.606C977.536 597.503 977.118 599.077 978.392 600.286C979.901 601.719 982.629 600.545 989.935 595.207C993.769 592.396 997.199 590.009 997.656 589.905C998.615 589.651 1002.53 593.366 1008.56 600.338C1014.2 606.86 1014.9 607.163 1017.72 604.194C1018.7 603.158 1023.8 594.199 1028.96 584.318C1034.21 574.436 1039.51 564.598 1040.83 562.357C1043.65 557.595 1044.23 555.097 1042.82 554.122C1042.21 553.724 1038.17 553.736 1033.67 554.127C1029.17 554.519 1019.11 554.823 1011.29 554.749C987.427 554.581 985.497 554.63 982.608 554.935C979.72 555.239 977.288 557.14 977.473 558.929ZM994.474 558.492C1000.68 558.562 1009.79 558.604 1014.66 558.57C1019.53 558.537 1023.81 558.657 1024.14 558.786C1024.74 559.001 1021.47 560.372 1001.45 568.244C992.619 571.689 989.745 572.545 989.313 571.866C984.5 563.806 982.222 559.404 982.669 558.933C982.937 558.65 988.22 558.469 994.474 558.492ZM1012.74 567.585C1030.32 561.248 1033.24 560.437 1030.32 562.857C1020.51 570.926 1003.4 582.815 997.181 585.871C994.958 586.986 991.472 589.053 989.398 590.577C987.321 592.01 985.286 593.304 984.874 593.36C984.462 593.417 984.992 590.875 986.106 587.811C987.128 584.75 988.358 580.903 988.776 579.329L989.575 576.503L992.754 575.042C994.573 574.26 1003.54 570.857 1012.74 567.585ZM1007.34 583.955C1011.36 581.414 1031.53 566.964 1032.78 565.645C1033.99 564.464 1032.65 567.579 1029.19 574.151C1027.18 577.881 1023.43 585.518 1020.82 591.103C1018.25 596.64 1015.89 601.391 1015.63 601.673C1015.13 602.192 1013.53 600.578 1004.95 590.913C1003.34 589.115 1002.23 587.443 1002.5 587.16C1002.73 586.924 1004.94 585.442 1007.34 583.955Z" fill="url(#paint46_linear_2503_621)"/>
<path d="M350.242 645.021C349.402 645.373 345.946 648.231 342.495 651.438C339.045 654.646 335.339 657.749 334.225 658.286L332.176 659.286L327.454 648.021C322.782 636.876 322.707 636.696 320.79 636.161C316.846 634.996 313.874 637.158 303.411 648.87C299.697 652.963 296.417 656.24 296.162 656.136C295.907 656.032 295.737 647.719 295.854 637.737C295.946 627.695 295.909 618.692 295.747 617.633C295.171 614.071 291.261 611.976 287.902 613.384C285.563 614.364 282.234 618.366 270.827 633.715C264.48 642.293 258.378 650.276 257.199 651.333C253.075 655.457 252.61 652.834 254.563 634.615C256.928 611.995 256.931 605.442 254.459 607.113C253.3 607.881 252.571 611.356 250.377 626.647C247.155 648.569 247.68 656.38 252.476 658.738C256.115 660.523 260.204 656.484 274.116 637.691C288.226 618.531 289.484 617.159 290.363 619.256C290.615 619.855 290.677 626.733 290.501 634.556C290.061 656.721 290.494 661.118 293.408 662.856C295.676 664.23 298.399 662.314 305.991 653.847C315.306 643.602 317.793 641.292 318.899 641.744C319.495 641.988 320.625 644.684 322.431 650.338C326.802 663.793 329.273 666.491 335.09 664.053C338.989 662.419 341.51 660.023 347.439 652.466C352.315 646.265 353.18 643.789 350.242 645.021Z" fill="url(#paint47_linear_2503_621)"/>
<path d="M817.343 306.542C815.871 312.931 817.838 324.075 821.16 328.29C825.867 334.321 826.305 334.602 829.579 335.159C835.963 336.168 843.42 332.615 847.983 326.588C851.329 322.096 852.136 317.828 850.132 314.689C849.408 313.53 848.484 312.32 848.046 312.039C846.369 311.04 841.099 310.823 837.018 311.524L832.722 312.319L830.907 307.68C829.489 303.991 828.635 302.671 826.938 301.583C824.092 299.756 822.432 299.695 820.387 301.316C818.217 303.012 818.097 303.32 817.343 306.542ZM824.186 305.992C824.788 306.379 825.799 308.417 826.395 310.498C828.506 317.565 829.292 318.146 836.212 316.874C844.3 315.348 846.512 315.995 845.747 319.595C844.784 324.227 839.04 328.724 832.214 330.211L827.508 331.283L825.79 329.023C823.392 326.017 822.172 322.378 821.775 317.337C821.089 309.254 822.106 304.658 824.186 305.992Z" fill="url(#paint48_linear_2503_621)"/>
<path d="M762.384 394.484C759.563 403.095 763.181 412.75 771.172 417.878L775.058 420.371L769.045 429.019C758.638 444.034 746.275 456.558 733.071 465.455C728.938 468.284 725.539 470.812 725.598 471.081C725.849 472.015 729.383 470.963 733.544 468.692C747.746 461.13 764.269 445.254 775.365 428.443L780.492 420.693L784.034 420.11C796.493 417.914 806.744 406.273 812.1 388.172C814.122 381.287 816.055 371.41 817.603 360.207C818.764 351.534 818.788 348.847 817.803 348.215C816.872 347.618 815.666 351.785 813.397 363.992C807.91 392.895 801.923 405.959 790.966 412.438C788.023 414.255 783.505 415.756 782.684 415.229C782.465 415.089 782.558 414.222 782.9 413.207C783.263 412.281 783.832 408.864 784.227 405.72C785.04 399.757 784.345 394.217 782.297 390.664C780.696 387.861 776.591 385.227 773.704 385.15C769.102 384.977 764.197 389.009 762.384 394.484ZM771.91 390.716C773.808 389.926 776.267 391.272 777.848 393.985C780.099 397.823 779.873 407.327 777.424 413.553C776.836 414.951 776.496 415.119 775.082 414.674C770.709 413.181 766.653 406.255 766.692 400.413C766.656 396.376 769.099 391.845 771.91 390.716Z" fill="url(#paint49_linear_2503_621)"/>
<path d="M351.907 235.568C352.329 236.622 353.555 240.839 354.57 244.957C357.432 256.55 361.811 264.236 366.114 265.297C367.828 265.761 368.461 265.6 370.31 264.337C372.46 262.896 375.224 258.538 375.629 255.981C375.789 255.299 376.217 254.644 376.603 254.586C377.641 254.495 387.792 261.641 391.311 264.922C394.135 267.519 396.644 271.084 396.905 272.819C397.147 274.425 393.923 278.786 389.866 282.419C380.994 290.324 377.699 295.091 377.617 300.228C377.585 308.314 388.584 314.544 411.815 319.458C424.112 322.076 426.733 323.324 425.207 325.853C424.843 326.499 421.67 329.013 418.157 331.448C407.258 339.001 404.179 343.012 405.02 348.602C405.871 354.256 413.33 360.558 422.595 363.566C428.319 365.332 434.339 366.004 435.213 364.821C436.033 363.712 435.061 362.938 432.235 362.509C423.671 361.104 412.775 355.122 410.664 350.709C408.617 346.286 409.264 345.335 420.747 337.3C428.781 331.689 431.047 329.705 431.944 327.796C434.887 321.571 430.783 317.458 418.965 314.966C402.918 311.467 396.956 309.868 392.37 307.798C387.433 305.584 384.361 303.09 384.052 301.034C383.675 298.528 386.352 294.906 393.415 288.521C402.377 280.339 403.894 277.746 403.034 272.028C402.599 269.137 401.933 267.331 400.363 265.202C397.873 261.766 389.555 255.002 384.487 252.348L380.839 250.4L384.662 248.708C389.173 246.781 390.906 244.746 391.814 240.733C394.28 229.587 380.515 222.459 361.994 225.246C354.663 226.349 351.657 227.787 351.079 230.502C350.598 232.546 350.749 233.114 351.907 235.568ZM361.482 230.58C377.311 228.263 389.934 233.92 385.316 241.251C384.033 243.218 383.85 243.311 377.365 244.353C373.709 244.969 370.374 245.536 369.934 245.668C368.86 245.961 369.279 247.869 370.771 249.484C371.855 250.569 372.016 251.202 371.682 253.355C371.387 255.765 368.662 260.38 367.504 260.554C366.797 260.66 363.741 256.521 362.534 253.746C361.936 252.39 360.362 247.174 359.074 242.111C357.731 237.123 356.505 232.905 356.357 232.796C355.321 232.032 357.173 231.228 361.482 230.58Z" fill="url(#paint50_linear_2503_621)"/>
<path d="M845.751 493.369C844.137 493.343 841.521 494.17 838.724 495.701C836.324 496.975 834.186 498.045 834.051 498.1C833.917 498.156 833.075 495.957 832.201 493.299C830.447 487.893 828.394 485.502 824.784 484.601C822.16 483.955 817.853 485.637 815.718 488.09C810.899 493.724 811.609 506.069 817.34 515.714C821.187 522.08 821.254 521.707 812.611 532.031L805.2 540.841L805.072 534.953C804.843 524.924 799.398 514.753 794.244 514.835C792.22 514.884 790.359 516.627 789.881 519.056C789.287 521.816 789.858 528.779 790.909 531.332C791.973 534.069 796.114 540.691 798.578 543.699L800.233 545.657L796.816 548.89C789.029 556.252 773.377 565.82 758.178 572.593C750.304 575.998 748.979 576.828 749.861 577.595C751.772 579.259 769.489 572.265 781.887 564.951C789.771 560.347 799.381 553.365 801.772 550.618C803.608 548.509 805.131 548.541 809.568 550.766C817.96 554.88 829.742 554.704 836.532 550.269C840.416 547.786 840.681 542.93 836.959 541.07C833.232 539.118 824.469 538.992 814.959 540.714L811.683 541.311L814.836 537.59C816.538 535.536 819.416 531.834 821.227 529.358C824.422 524.896 824.556 524.841 828.43 523.557C834.559 521.563 839.499 518.362 844.49 513.223C849.993 507.495 851.655 504.2 851.426 499.516C851.227 495.291 849.487 493.431 845.751 493.369ZM847.52 500.341C847.595 504.114 842.857 510.25 836.703 514.549C830.939 518.498 825.648 520.618 824.954 519.238C824.684 518.658 823.426 516.442 822.217 514.268C818.823 508.469 817.728 505.274 817.339 500.279C816.918 494.825 818.188 491.189 821.175 489.737C825.359 487.602 827.904 491.111 828.343 499.512C828.825 507.864 830.447 508.672 835.321 503.172C837.2 501.014 841.218 498.476 844.023 497.728C846.009 497.129 847.51 498.176 847.52 500.341ZM833.383 547.355C831.143 548.94 819.575 549.561 815.023 548.358C812.913 547.814 811.212 547.195 811.193 546.92C811.086 545.361 825.83 543.366 831.414 544.175C835.231 544.738 835.801 545.666 833.383 547.355ZM798.982 526.116C799.805 528.04 800.601 531.578 800.759 533.871L801.091 538.041L799.5 537C796.26 534.783 793.364 526.83 794.253 522.345L794.695 520.056L796.067 521.251C796.851 521.933 798.152 524.1 798.982 526.116Z" fill="url(#paint51_linear_2503_621)"/>
<path d="M875.304 407.281C874.394 407.996 872.64 410.272 871.47 412.288L869.326 415.995L862.309 416.515C854.123 417.166 852.434 417.686 851.459 419.832C850.289 422.368 851.199 424.124 856.007 429.002C858.541 431.473 860.62 433.944 860.62 434.399C860.62 434.855 859.84 437.846 858.931 440.968C857.956 444.154 857.371 447.276 857.631 447.861C858.216 449.487 860.62 448.837 866.792 445.325C869.651 443.699 872.315 442.333 872.64 442.333C873.03 442.333 875.044 443.244 877.188 444.284C881.736 446.495 883.945 446.69 886.024 445C887.323 443.959 887.583 443.049 887.778 438.887L888.038 433.944L892.066 431.408C897.264 427.961 899.473 425.945 899.993 423.799C900.772 420.547 896.744 418.336 890.052 418.271C886.089 418.271 884.14 417.296 883.62 415.215C882.905 412.288 881.021 408.191 879.787 407.021C878.357 405.59 877.383 405.655 875.304 407.281ZM877.513 416.06C877.513 416.58 877.058 416.971 876.538 416.971C875.434 416.971 875.369 416.841 875.953 415.41C876.408 414.239 877.513 414.629 877.513 416.06ZM865.818 423.149C865.818 423.994 864.258 427.376 863.869 427.376C863.089 427.376 859.321 424.124 859.321 423.474C859.321 423.149 859.97 422.824 860.815 422.693C862.179 422.498 865.818 422.824 865.818 423.149ZM877.708 423.409C879.397 424.059 879.722 424.774 880.436 428.676C880.826 430.888 880.761 431.018 877.318 432.904L873.744 434.79L871.145 433.034L868.482 431.278L869.456 428.481C871.21 423.409 873.679 421.913 877.708 423.409ZM890.767 425.035C890.377 426.075 887.388 427.506 886.609 427.051C886.349 426.921 885.959 426.14 885.764 425.425C885.439 424.254 885.764 424.124 888.298 424.124C890.377 424.124 891.027 424.319 890.767 425.035ZM866.467 438.041C866.467 438.236 866.208 438.561 865.818 438.756C865.493 438.952 865.168 438.822 865.168 438.496C865.168 438.106 865.493 437.781 865.818 437.781C866.208 437.781 866.467 437.911 866.467 438.041Z" fill="url(#paint52_linear_2503_621)"/>
<path d="M174.028 566.616C173.989 567.772 174.602 570.58 175.392 572.773L176.849 576.8L172.73 582.504C167.958 589.188 167.269 590.816 168.284 592.943C169.472 595.47 171.401 595.905 178.229 595.365C181.751 595.016 184.981 595.016 185.329 595.309C185.677 595.602 187.465 598.124 189.268 600.83C191.079 603.627 193.092 606.084 193.707 606.262C195.328 606.861 196.377 604.602 197.663 597.618C198.259 594.384 198.929 591.466 199.138 591.218C199.389 590.919 201.382 589.964 203.558 588.993C208.178 586.936 209.749 585.371 209.794 582.691C209.834 581.027 209.304 580.242 206.245 577.414L202.63 574.034L203.282 569.318C203.99 563.122 203.869 560.134 202.561 558.354C200.575 555.665 196.289 557.324 191.932 562.404C189.381 565.437 187.38 566.3 185.453 565.359C182.753 564.022 178.405 562.826 176.714 563.018C174.699 563.19 174.122 563.978 174.028 566.616ZM182.168 570.577C182.566 570.911 182.572 571.511 182.238 571.908C181.527 572.754 181.385 572.72 180.667 571.351C180.064 570.25 181.073 569.656 182.168 570.577ZM180.065 584.089C180.712 584.633 182.296 588.004 182.045 588.302C181.543 588.899 176.629 589.689 176.131 589.271C175.883 589.061 176.052 588.355 176.496 587.625C177.225 586.455 179.816 583.88 180.065 584.089ZM187.917 575.158C189.502 574.284 190.259 574.495 193.705 576.46C195.648 577.585 195.706 577.719 194.933 581.568L194.076 585.516L191.059 586.375L188.001 587.283L186.488 584.738C183.735 580.13 184.18 577.278 187.917 575.158ZM197.568 566.21C198.113 567.178 197.284 570.386 196.434 570.69C196.167 570.805 195.319 570.601 194.646 570.29C193.541 569.785 193.651 569.453 195.282 567.514C196.62 565.923 197.188 565.551 197.568 566.21ZM191.88 593.178C192.029 593.304 192.111 593.712 192.009 594.136C191.949 594.51 191.641 594.675 191.392 594.466C191.093 594.215 191.054 593.757 191.263 593.508C191.514 593.21 191.78 593.095 191.88 593.178Z" fill="url(#paint53_linear_2503_621)"/>
<path d="M259.623 242.792C259.585 243.948 260.198 246.756 260.988 248.948L262.445 252.975L258.326 258.68C253.554 265.364 252.865 266.991 253.88 269.119C255.068 271.646 256.997 272.08 263.825 271.541C267.347 271.192 270.576 271.192 270.925 271.485C271.273 271.778 273.06 274.3 274.864 277.006C276.675 279.803 278.688 282.259 279.303 282.437C280.923 283.036 281.973 280.778 283.259 273.794C283.855 270.56 284.524 267.642 284.733 267.393C284.984 267.095 286.978 266.14 289.154 265.169C293.774 263.112 295.345 261.547 295.389 258.867C295.43 257.203 294.9 256.418 291.84 253.59L288.225 250.209L288.877 245.494C289.585 239.298 289.465 236.309 288.157 234.53C286.17 231.84 281.885 233.5 277.528 238.579C274.977 241.612 272.975 242.476 271.048 241.534C268.349 240.197 264 239.002 262.31 239.193C260.295 239.366 259.717 240.154 259.623 242.792ZM267.764 246.752C268.162 247.087 268.168 247.686 267.833 248.084C267.122 248.929 266.981 248.895 266.262 247.527C265.659 246.425 266.669 245.831 267.764 246.752ZM265.661 260.265C266.308 260.809 267.892 264.179 267.641 264.478C267.139 265.074 262.225 265.865 261.727 265.447C261.478 265.237 261.648 264.531 262.092 263.801C262.821 262.631 265.412 260.056 265.661 260.265ZM273.513 251.333C275.098 250.459 275.855 250.671 279.301 252.636C281.244 253.761 281.302 253.894 280.528 257.744L279.671 261.692L276.655 262.551L273.596 263.459L272.084 260.913C269.331 256.306 269.775 253.453 273.513 251.333ZM283.164 242.386C283.709 243.354 282.88 246.562 282.03 246.866C281.763 246.981 280.915 246.777 280.242 246.466C279.137 245.961 279.247 245.629 280.878 243.689C282.216 242.098 282.783 241.727 283.164 242.386ZM277.476 269.354C277.625 269.48 277.707 269.888 277.605 270.312C277.545 270.686 277.236 270.851 276.988 270.642C276.689 270.39 276.649 269.933 276.858 269.684C277.109 269.386 277.376 269.27 277.476 269.354Z" fill="url(#paint54_linear_2503_621)"/>
<path d="M122.256 610.969C120.895 611.088 118.562 611.956 117.052 612.851C114.743 614.214 114.077 615.076 112.558 618.605C111.024 621.99 110.814 623.299 111.029 626.64L111.345 630.642L106.381 631.504C100.049 632.69 92.0869 632.854 83.9317 632.045C78.6446 631.538 76.0343 630.916 69.251 628.466C64.7439 626.792 60.4266 624.98 59.6419 624.48C58.8797 623.92 57.7608 623.574 57.1603 623.697C56.1648 623.952 56.1195 624.074 56.7075 624.917C58.3949 627.278 62.1883 629.381 69.6415 632.079C76.2803 634.545 78.6853 635.161 84.8321 635.779C93.0255 636.672 100.805 636.439 108.209 635.166C113.295 634.349 113.295 634.349 114.326 636.05C116.038 638.906 121.537 644.625 125.546 647.641C132.818 653.255 140.767 656.485 156.855 660.379L160.037 661.145L160.686 664.994C162.472 675.3 173.381 686.983 185.379 691.439C193.967 694.629 206.351 695.621 219.048 694.093C226.149 693.262 230.671 692.097 231.078 691C231.441 690.024 230.026 689.915 220.984 690.373C204.757 691.144 197.484 690.385 188.348 686.992C178.116 683.191 171.087 677.112 167.222 668.67C164.008 661.649 164.205 661.305 171.156 661.251C188.184 661.124 201.355 652.905 199.2 643.779C197.837 637.931 192.179 635.066 183.457 635.781C177.542 636.22 170.903 639.166 166.822 643.061C164.486 645.246 163.313 647.099 161.597 650.972L159.33 655.957L154.939 655.089C152.55 654.618 147.442 653.068 143.544 651.62C132.825 647.638 125.228 642.527 120.228 636.022L118.006 633.047L122.001 631.062C126.581 628.808 130.934 624.737 132.067 621.689C133.063 619.006 132.314 615.051 130.538 613.49C128.563 611.716 125 610.67 122.256 610.969ZM128.392 618.52C128.393 621.503 124.723 625.413 119.983 627.537C116.77 628.911 116.206 628.563 115.786 625.215C115.335 621.579 117.764 617.278 120.932 616.027C124.411 614.683 128.354 616.009 128.392 618.52ZM194.226 643.735C194.784 644.845 195.047 646.191 194.843 646.74C193.507 650.336 185.914 654.731 179.255 655.865C175.614 656.525 166.846 656.806 165.628 656.354C165.263 656.218 165.608 654.542 166.332 652.592C168.755 646.068 175.89 641.226 184.307 640.398C189.835 639.884 192.986 640.916 194.226 643.735Z" fill="url(#paint55_linear_2503_621)"/>
<path d="M1004.23 338.051C994.04 333.983 978.931 335.483 967.822 341.647C963.905 343.868 962.993 343.972 959.346 342.191C954.621 339.933 944.476 338.208 940.238 339.029C936.289 339.767 934.051 344.018 935.657 347.718C937.004 350.786 944.06 358.733 949.355 363.261C951.707 365.177 952.629 367.032 952.929 371.106C955.559 398.451 979.95 416.268 1005.37 409.382C1013.68 407.159 1013.83 407.117 1022.08 410.482C1035.7 415.844 1044.58 414.792 1045.17 407.795C1045.5 403.461 1040.81 397.192 1034.33 393.474C1029.35 390.585 1028.99 390.139 1029.76 387.64C1034.35 372.358 1029 354.738 1017.02 345.767C1014.99 344.151 1012.49 342.276 1011.52 341.613C1010.6 340.857 1007.32 339.283 1004.23 338.051ZM1017.13 353.272C1021.82 358.443 1025.95 370.994 1025.43 378.52C1025.14 381.9 1024 386.151 1022.66 388.577C1019.86 393.617 1015.15 398.575 1013 398.721C1010.89 398.774 993.299 388.272 978.555 378.131C957.976 363.774 958.152 364.116 962.868 355.624C969.293 344.051 982.837 337.897 995.075 340.907C1002.4 342.655 1012.79 348.548 1017.13 353.272ZM957.79 353.781C954.888 359.007 954.495 359.277 952.629 358.242C950.112 356.843 943.895 350.461 941.833 347.363C941.118 346.233 940.983 344.937 941.667 344.585C943.626 343.474 954.744 344.764 957.915 346.525L960.899 348.182L957.79 353.781ZM1037.15 403.342C1038.6 405.124 1039.29 406.969 1038.74 407.518C1037 409.116 1031.44 408.352 1025.21 405.504L1019.4 403.009L1021.46 400.613C1026.23 395.324 1026.09 395.365 1030.47 397.799C1032.8 399.094 1035.79 401.611 1037.15 403.342ZM985.559 389.468C996.097 396.418 1004.86 402.385 1004.99 402.82C1005.41 404.033 998.645 404.793 991.93 404.361C982.552 403.672 972.253 397.831 966.388 389.935C962.513 384.608 958.462 374.545 959.499 372.678C959.758 372.212 961.395 372.999 963.198 374.366C964.907 375.682 975.021 382.518 985.559 389.468Z" fill="url(#paint56_linear_2503_621)"/>
<path d="M196.655 406.827C193.926 407.998 190.612 411.965 190.158 414.631C188.858 421.264 195.745 428.158 205.296 429.979C209.909 430.824 212.963 430.174 215.562 427.703C217.446 425.882 217.771 425.166 217.771 422.565C217.771 416.842 213.807 412.485 208.09 411.9C201.593 411.314 198.864 414.826 201.593 420.419C203.997 425.361 206.79 425.231 205.426 420.289C205.036 418.793 204.906 417.297 205.101 416.972C206.271 415.086 212.118 417.688 213.223 420.614C214.132 422.89 214.067 423.28 212.573 424.776C208.739 428.613 195.875 423.801 194.121 417.818C193.471 415.737 195.29 411.965 197.759 410.469C199.514 409.363 200.878 409.168 205.621 409.233C208.739 409.298 211.468 409.168 211.663 408.973C213.937 406.697 201.073 404.876 196.655 406.827Z" fill="url(#paint57_linear_2503_621)"/>
<path d="M799.655 437.827C796.926 438.998 793.612 442.965 793.158 445.631C791.858 452.264 798.745 459.158 808.296 460.979C812.909 461.824 815.963 461.174 818.562 458.703C820.446 456.882 820.771 456.166 820.771 453.565C820.771 447.842 816.807 443.485 811.09 442.9C804.593 442.314 801.864 445.826 804.593 451.419C806.997 456.361 809.79 456.231 808.426 451.289C808.036 449.793 807.906 448.297 808.101 447.972C809.271 446.086 815.118 448.688 816.223 451.614C817.132 453.89 817.067 454.28 815.573 455.776C811.739 459.613 798.875 454.801 797.121 448.818C796.471 446.737 798.29 442.965 800.759 441.469C802.514 440.363 803.878 440.168 808.621 440.233C811.739 440.298 814.468 440.168 814.663 439.973C816.937 437.697 804.073 435.876 799.655 437.827Z" fill="url(#paint58_linear_2503_621)"/>
<path d="M901.655 566.827C898.926 567.998 895.612 571.965 895.158 574.631C893.858 581.264 900.745 588.158 910.296 589.979C914.909 590.824 917.963 590.174 920.562 587.703C922.446 585.882 922.771 585.166 922.771 582.565C922.771 576.842 918.807 572.485 913.09 571.9C906.593 571.314 903.864 574.826 906.593 580.419C908.997 585.361 911.79 585.231 910.426 580.289C910.036 578.793 909.906 577.297 910.101 576.972C911.271 575.086 917.118 577.688 918.223 580.614C919.132 582.89 919.067 583.28 917.573 584.776C913.739 588.613 900.875 583.801 899.121 577.818C898.471 575.737 900.29 571.965 902.759 570.469C904.514 569.363 905.878 569.168 910.621 569.233C913.739 569.298 916.468 569.168 916.663 568.973C918.937 566.697 906.073 564.876 901.655 566.827Z" fill="url(#paint59_linear_2503_621)"/>
<path d="M89.1993 512.426C91.7727 513.528 92.0951 512.011 89.9824 508.703C87.2266 504.383 87.1376 498.132 89.8057 493.351C91.8758 489.535 91.1871 488.019 88.1067 489.721C84.5206 491.837 82.4502 496.296 82.7236 501.352C83.0888 506.775 85.477 510.819 89.1993 512.426Z" fill="url(#paint60_linear_2503_621)"/>
<path d="M111.304 519.817C116.267 522.204 120.128 523.03 125.827 522.935C132.354 522.84 138.054 521.643 143.893 519.112C146.467 518.008 148.72 517.041 148.904 517.041C149.042 516.995 149.271 518.696 149.408 520.856C149.818 526.969 153.539 532.529 157.859 533.446C162.685 534.409 170.04 532.107 177.488 527.324C180.017 525.714 182.73 524.288 183.419 524.241C184.154 524.149 189.486 524.882 195.231 525.845C206.123 527.632 210.122 527.768 211.64 526.251C212.743 525.147 211.778 524.182 208.332 523.035C206.861 522.576 203.691 520.693 201.301 518.855C199.004 517.018 194.915 514.216 192.249 512.562C183.565 507.189 182.049 506.04 181.911 504.708C181.866 504.018 182.281 501.03 182.88 498.042C184.63 489.125 183.117 482.277 178.477 477.545C174.618 473.686 168.459 472.769 161.38 475.071L159.035 475.761L159.358 472.59C160.05 466.752 159.549 458.617 158.309 454.986C156.703 450.345 153.257 446.623 149.719 445.66C145.628 444.604 140.158 446.767 134.87 451.596L130.501 455.505L129.353 453.805C119.11 438.871 107.025 430.925 95.3964 431.528C91.4894 431.76 86.4325 433.693 84.3172 435.808C82.3399 437.785 80.2691 442.888 80.0836 446.474C79.4357 455.85 86.6477 464.994 101.582 473.766C104.798 475.695 107.601 477.578 107.785 478.037C108.014 478.451 106.635 480.474 104.105 483.371C97.7589 490.636 96.2864 494.222 97.2026 500.748C98.2561 508.516 104.09 516.465 111.304 519.817ZM101.659 504.837C98.6749 497.438 99.918 492.979 107 484.886C113.622 477.345 113.439 476.886 102.503 470.272C97.8157 467.425 95.1048 465.357 91.2457 461.498C86.6514 456.996 86.0084 456.077 84.769 452.63C80.408 440.728 90.4321 432.082 103.3 436.764C110.882 439.473 117.453 444.939 124.251 454.129C127.742 458.815 128.339 459.413 129.902 459.78C131.924 460.146 131.556 460.422 137.12 455.042C149.72 442.81 158.036 450.574 155.452 472.27C154.99 476.223 154.942 479.762 155.264 480.084C156.137 480.957 157.7 480.68 160.734 479.208C166.159 476.631 172.686 476.996 175.856 480.166C179.439 483.749 180.539 491.563 178.604 500.297C177.729 504.112 178.187 506.686 180.025 508.523C180.576 509.075 184.436 511.739 188.572 514.403C198.864 521.109 200.748 522.441 200.196 522.992C199.92 523.268 196.152 522.81 191.785 521.939C187.419 521.16 183.145 520.656 182.317 520.841C181.444 521.071 179.053 522.359 176.984 523.693C169.582 528.522 161.951 531.1 158.182 529.999C154.552 528.851 151.751 522.004 152.857 516.764C153.548 513.776 152.813 511.845 151.112 511.892C150.423 511.939 147.986 512.997 145.642 514.147C134.056 520.22 120.543 520.777 111.168 515.634C107.63 513.659 103.128 508.605 101.659 504.837Z" fill="url(#paint61_linear_2503_621)"/>
<path d="M131.522 533.412C132.625 533.319 135.245 532.904 137.314 532.398L141.129 531.523L142.691 534.647C144.298 538.002 146.044 539.472 147.055 538.46C147.377 538.138 147.424 537.173 147.148 536.254C146.873 535.427 146.277 532.899 145.91 530.693C144.763 525.04 143.936 524.857 135.431 528.584C131.615 530.194 128.535 531.712 128.535 531.988C128.535 532.999 129.683 533.504 131.522 533.412Z" fill="url(#paint62_linear_2503_621)"/>
<path d="M186.769 536.236C191.457 536.05 197.479 535.266 198.95 534.622C200.559 533.839 199.962 532.599 197.894 532.462C195.09 532.325 183.323 533.893 182.771 534.445C181.575 535.641 183.229 536.376 186.769 536.236Z" fill="url(#paint63_linear_2503_621)"/>
<path d="M201.258 512.374C207.692 515.404 210.403 515.725 209.118 513.244C208.521 512.095 199.146 507.411 197.032 507.228C193.861 506.908 196.387 509.986 201.258 512.374Z" fill="url(#paint64_linear_2503_621)"/>
<path d="M138.736 440.747C139.195 440.838 140.804 440.516 142.367 440.056C145.907 438.905 148.527 438.95 152.295 440.419C156.293 441.934 160.566 446.114 162.448 450.48C163.78 453.467 163.918 453.697 164.929 453.237C166.4 452.592 165.897 448.042 164.014 444.688C161.075 439.449 153.585 434.81 148.207 434.951C144.806 435.044 140.53 436.563 138.645 438.449C137.173 439.92 137.173 440.472 138.736 440.747Z" fill="url(#paint65_linear_2503_621)"/>
<path d="M504.45 2.41512C501.41 3.94651 497.844 7.74396 496.696 10.7609C494.854 15.6164 493.989 23.715 494.99 27.8889C495.884 31.6201 495.566 31.9639 492.038 31.7397C485.138 31.3875 478.995 34.4654 477.913 38.8711C477.094 42.1437 478.486 46.558 481.539 50.3736C484.39 53.9034 490.308 57.9682 493.798 58.8702C496.283 59.4784 496.437 59.8427 494.918 62.1463C493.063 64.9985 493.328 66.9412 496.163 70.4077C499.904 74.861 504.998 77.719 512.921 79.8321C524.099 82.7029 534.678 82.2398 538.227 78.6472C539.483 77.4767 542.576 70.315 543.413 66.8376C543.446 66.6959 544.719 66.9925 546.276 67.3549C548.336 67.8642 549.723 67.7991 551.684 67.0614C561.412 63.3249 574.082 43.4349 575.313 29.8984C575.732 25.5178 573.916 17.6608 571.876 15.0066C568.467 10.5408 562.366 9.06085 558.166 11.606C555.361 13.2817 552.975 15.5924 550.309 19.241C549.144 20.791 548.044 22.0577 547.791 22.1183C547.539 22.1788 546.639 20.6558 545.712 18.7381C542.699 12.3046 537.655 9.10016 532.35 10.1044C529.492 10.7228 529.335 10.6266 527.281 7.90916C525.133 5.08037 520.48 2.11638 516.849 1.1814C515.15 0.786051 507.68 0.838282 506.714 1.27036C506.54 1.37904 505.511 1.82627 504.45 2.41512ZM513.457 6.54206C517.235 6.97377 520.67 8.75852 523.118 11.4483L525.239 13.8825L523.629 17.4785C521.599 22.1114 521.129 25.1666 521.715 29.8411C522.203 33.2686 522.041 33.7086 520.194 35.7565C516.946 39.2101 515.452 48.8639 517.011 55.6458C517.314 56.9106 517.398 58.0944 517.254 58.3296C517.125 58.628 515.063 58.3867 512.672 57.8899C510.281 57.393 506.738 57.1056 504.751 57.1806C498.287 57.5267 491.087 53.9697 486.116 48.0057C483.498 44.8884 482.532 41.9767 483.42 39.8246C484.37 37.6574 489.675 36.6531 494.929 37.6673C499.286 38.5621 501.762 38.3027 502.248 36.9826C502.409 36.5426 501.965 33.573 501.255 30.3325C499.236 20.5178 500.762 12.3942 505.334 8.89064C508.081 6.6939 509.899 6.19139 513.457 6.54206ZM535.206 14.7698C538.256 15.5098 540.869 19.1633 542.656 25.2219C545.269 33.8912 547.003 33.8768 552.871 24.913C557.668 17.6104 560.845 14.9763 564.118 15.5292C566.824 15.9503 568.55 18.4121 569.778 23.5346C570.915 28.2776 570.008 34.2465 567.091 41.0314C563.288 49.9683 553.944 61.4372 549.584 62.4823C547.563 62.967 544.067 62.6012 543.901 61.9056C543.918 61.7007 543.843 59.7126 543.848 57.5045C543.881 52.3472 542.046 44.6951 539.891 40.9987C537.379 36.6522 533.702 33.8556 529.203 32.9278C525.476 32.1496 525.319 32.0534 525.228 30.002C525.066 25.4264 526.755 20.2066 529.462 17.2839C532.376 14.1109 532.502 14.0806 535.206 14.7698ZM531.708 39.7505C534.447 41.7019 536.618 45.4615 537.815 50.4575C539.526 57.8718 538.313 69.5315 535.073 75.5246L533.501 78.4427L528.507 78.2356C518.456 77.8364 508.057 74.3108 502.193 69.3633C499.004 66.6504 498.661 64.6596 501.132 63.2645C503.841 61.7456 506.867 61.8229 513.738 63.4524C520.248 64.9679 521.982 64.9535 522.801 63.3528C523.059 62.756 522.869 59.4577 522.414 55.8886C521.447 48.2293 521.71 43.7525 523.299 40.6294C524.28 38.5887 524.74 38.2778 526.774 38.1245C528.399 37.9355 529.938 38.5028 531.708 39.7505Z" fill="url(#paint66_linear_2503_621)"/>
<defs>
<linearGradient id="paint0_linear_2503_621" x1="666.928" y1="38.5792" x2="659.99" y2="193.193" gradientUnits="userSpaceOnUse">
<stop stop-color="#42307D"/>
<stop offset="1" stop-color="#7F56D9"/>
</linearGradient>
<linearGradient id="paint1_linear_2503_621" x1="681.152" y1="157.071" x2="689.142" y2="175.021" gradientUnits="userSpaceOnUse">
<stop stop-color="#42307D"/>
<stop offset="1" stop-color="#7F56D9"/>
</linearGradient>
<linearGradient id="paint2_linear_2503_621" x1="709.92" y1="178.367" x2="718.08" y2="192.848" gradientUnits="userSpaceOnUse">
<stop stop-color="#42307D"/>
<stop offset="1" stop-color="#7F56D9"/>
</linearGradient>
<linearGradient id="paint3_linear_2503_621" x1="641.535" y1="139.946" x2="647.936" y2="154.55" gradientUnits="userSpaceOnUse">
<stop stop-color="#42307D"/>
<stop offset="1" stop-color="#7F56D9"/>
</linearGradient>
<linearGradient id="paint4_linear_2503_621" x1="671.439" y1="184.446" x2="678.726" y2="203.171" gradientUnits="userSpaceOnUse">
<stop stop-color="#42307D"/>
<stop offset="1" stop-color="#7F56D9"/>
</linearGradient>
<linearGradient id="paint5_linear_2503_621" x1="636.373" y1="167.217" x2="641.224" y2="178.369" gradientUnits="userSpaceOnUse">
<stop stop-color="#42307D"/>
<stop offset="1" stop-color="#7F56D9"/>
</linearGradient>
<linearGradient id="paint6_linear_2503_621" x1="341.675" y1="117" x2="408.038" y2="237.494" gradientUnits="userSpaceOnUse">
<stop stop-color="#42307D"/>
<stop offset="1" stop-color="#7F56D9"/>
</linearGradient>
<linearGradient id="paint7_linear_2503_621" x1="363.745" y1="139.207" x2="432.968" y2="251.947" gradientUnits="userSpaceOnUse">
<stop stop-color="#42307D"/>
<stop offset="1" stop-color="#7F56D9"/>
</linearGradient>
<linearGradient id="paint8_linear_2503_621" x1="332" y1="170.229" x2="355.215" y2="183.761" gradientUnits="userSpaceOnUse">
<stop stop-color="#42307D"/>
<stop offset="1" stop-color="#7F56D9"/>
</linearGradient>
<linearGradient id="paint9_linear_2503_621" x1="500.934" y1="184.627" x2="516.779" y2="190.61" gradientUnits="userSpaceOnUse">
<stop stop-color="#42307D"/>
<stop offset="1" stop-color="#7F56D9"/>
</linearGradient>
<linearGradient id="paint10_linear_2503_621" x1="658.998" y1="254.736" x2="803.899" y2="385.902" gradientUnits="userSpaceOnUse">
<stop stop-color="#42307D"/>
<stop offset="1" stop-color="#7F56D9"/>
</linearGradient>
<linearGradient id="paint11_linear_2503_621" x1="698.059" y1="280.086" x2="723.404" y2="284.458" gradientUnits="userSpaceOnUse">
<stop stop-color="#42307D"/>
<stop offset="1" stop-color="#7F56D9"/>
</linearGradient>
<linearGradient id="paint12_linear_2503_621" x1="754.873" y1="305.351" x2="804.824" y2="337.622" gradientUnits="userSpaceOnUse">
<stop stop-color="#42307D"/>
<stop offset="1" stop-color="#7F56D9"/>
</linearGradient>
<linearGradient id="paint13_linear_2503_621" x1="683.085" y1="354.73" x2="691.067" y2="361.516" gradientUnits="userSpaceOnUse">
<stop stop-color="#42307D"/>
<stop offset="1" stop-color="#7F56D9"/>
</linearGradient>
<linearGradient id="paint14_linear_2503_621" x1="728.262" y1="365.58" x2="734.513" y2="376.159" gradientUnits="userSpaceOnUse">
<stop stop-color="#42307D"/>
<stop offset="1" stop-color="#7F56D9"/>
</linearGradient>
<radialGradient id="paint15_radial_2503_621" cx="0" cy="0" r="1" gradientUnits="userSpaceOnUse" gradientTransform="translate(407.124 656) rotate(3.16869) scale(552.665 186.623)">
<stop stop-color="white"/>
<stop offset="1" stop-color="#C9C9C9" stop-opacity="0"/>
</radialGradient>
<linearGradient id="paint16_linear_2503_621" x1="229.442" y1="347.822" x2="396.556" y2="312.849" gradientUnits="userSpaceOnUse">
<stop stop-color="#42307D"/>
<stop offset="1" stop-color="#7F56D9"/>
</linearGradient>
<linearGradient id="paint17_linear_2503_621" x1="415.943" y1="557.677" x2="415.527" y2="563.917" gradientUnits="userSpaceOnUse">
<stop stop-color="#42307D"/>
<stop offset="1" stop-color="#7F56D9"/>
</linearGradient>
<linearGradient id="paint18_linear_2503_621" x1="339.741" y1="510.157" x2="348.16" y2="546.984" gradientUnits="userSpaceOnUse">
<stop stop-color="#42307D"/>
<stop offset="1" stop-color="#7F56D9"/>
</linearGradient>
<linearGradient id="paint19_linear_2503_621" x1="387.432" y1="544.899" x2="386.273" y2="550.889" gradientUnits="userSpaceOnUse">
<stop stop-color="#42307D"/>
<stop offset="1" stop-color="#7F56D9"/>
</linearGradient>
<linearGradient id="paint20_linear_2503_621" x1="373.081" y1="538.129" x2="371.482" y2="545.218" gradientUnits="userSpaceOnUse">
<stop stop-color="#42307D"/>
<stop offset="1" stop-color="#7F56D9"/>
</linearGradient>
<linearGradient id="paint21_linear_2503_621" x1="356.122" y1="531.002" x2="354.34" y2="538.692" gradientUnits="userSpaceOnUse">
<stop stop-color="#42307D"/>
<stop offset="1" stop-color="#7F56D9"/>
</linearGradient>
<linearGradient id="paint22_linear_2503_621" x1="351.081" y1="540.434" x2="349.877" y2="547.969" gradientUnits="userSpaceOnUse">
<stop stop-color="#42307D"/>
<stop offset="1" stop-color="#7F56D9"/>
</linearGradient>
<linearGradient id="paint23_linear_2503_621" x1="236.614" y1="461.161" x2="242.967" y2="496.223" gradientUnits="userSpaceOnUse">
<stop stop-color="#42307D"/>
<stop offset="1" stop-color="#7F56D9"/>
</linearGradient>
<linearGradient id="paint24_linear_2503_621" x1="319.192" y1="518.733" x2="317.683" y2="523.442" gradientUnits="userSpaceOnUse">
<stop stop-color="#42307D"/>
<stop offset="1" stop-color="#7F56D9"/>
</linearGradient>
<linearGradient id="paint25_linear_2503_621" x1="305.519" y1="511.167" x2="303.906" y2="516.494" gradientUnits="userSpaceOnUse">
<stop stop-color="#42307D"/>
<stop offset="1" stop-color="#7F56D9"/>
</linearGradient>
<linearGradient id="paint26_linear_2503_621" x1="371.058" y1="556.961" x2="376.198" y2="591.937" gradientUnits="userSpaceOnUse">
<stop stop-color="#42307D"/>
<stop offset="1" stop-color="#7F56D9"/>
</linearGradient>
<linearGradient id="paint27_linear_2503_621" x1="288.389" y1="500.549" x2="287.036" y2="505.397" gradientUnits="userSpaceOnUse">
<stop stop-color="#42307D"/>
<stop offset="1" stop-color="#7F56D9"/>
</linearGradient>
<linearGradient id="paint28_linear_2503_621" x1="272.146" y1="490.715" x2="270.534" y2="495.396" gradientUnits="userSpaceOnUse">
<stop stop-color="#42307D"/>
<stop offset="1" stop-color="#7F56D9"/>
</linearGradient>
<linearGradient id="paint29_linear_2503_621" x1="328.324" y1="530.646" x2="329.993" y2="537.234" gradientUnits="userSpaceOnUse">
<stop stop-color="#42307D"/>
<stop offset="1" stop-color="#7F56D9"/>
</linearGradient>
<linearGradient id="paint30_linear_2503_621" x1="359.891" y1="553.443" x2="359.533" y2="561.549" gradientUnits="userSpaceOnUse">
<stop stop-color="#42307D"/>
<stop offset="1" stop-color="#7F56D9"/>
</linearGradient>
<linearGradient id="paint31_linear_2503_621" x1="256.867" y1="482.526" x2="255.485" y2="488.072" gradientUnits="userSpaceOnUse">
<stop stop-color="#42307D"/>
<stop offset="1" stop-color="#7F56D9"/>
</linearGradient>
<linearGradient id="paint32_linear_2503_621" x1="317.435" y1="532.645" x2="320.473" y2="542.363" gradientUnits="userSpaceOnUse">
<stop stop-color="#42307D"/>
<stop offset="1" stop-color="#7F56D9"/>
</linearGradient>
<linearGradient id="paint33_linear_2503_621" x1="248.444" y1="494.043" x2="248.651" y2="500.009" gradientUnits="userSpaceOnUse">
<stop stop-color="#42307D"/>
<stop offset="1" stop-color="#7F56D9"/>
</linearGradient>
<linearGradient id="paint34_linear_2503_621" x1="355.606" y1="568.73" x2="355.269" y2="574.088" gradientUnits="userSpaceOnUse">
<stop stop-color="#42307D"/>
<stop offset="1" stop-color="#7F56D9"/>
</linearGradient>
<linearGradient id="paint35_linear_2503_621" x1="344.868" y1="565.997" x2="344.541" y2="573.597" gradientUnits="userSpaceOnUse">
<stop stop-color="#42307D"/>
<stop offset="1" stop-color="#7F56D9"/>
</linearGradient>
<linearGradient id="paint36_linear_2503_621" x1="252.65" y1="504.402" x2="254.023" y2="512.155" gradientUnits="userSpaceOnUse">
<stop stop-color="#42307D"/>
<stop offset="1" stop-color="#7F56D9"/>
</linearGradient>
<linearGradient id="paint37_linear_2503_621" x1="298.45" y1="538.249" x2="300.539" y2="548.366" gradientUnits="userSpaceOnUse">
<stop stop-color="#42307D"/>
<stop offset="1" stop-color="#7F56D9"/>
</linearGradient>
<linearGradient id="paint38_linear_2503_621" x1="255.148" y1="518.513" x2="256.055" y2="526.186" gradientUnits="userSpaceOnUse">
<stop stop-color="#42307D"/>
<stop offset="1" stop-color="#7F56D9"/>
</linearGradient>
<linearGradient id="paint39_linear_2503_621" x1="310.606" y1="557.161" x2="309.296" y2="566.303" gradientUnits="userSpaceOnUse">
<stop stop-color="#42307D"/>
<stop offset="1" stop-color="#7F56D9"/>
</linearGradient>
<linearGradient id="paint40_linear_2503_621" x1="283.106" y1="542.39" x2="286.233" y2="552.413" gradientUnits="userSpaceOnUse">
<stop stop-color="#42307D"/>
<stop offset="1" stop-color="#7F56D9"/>
</linearGradient>
<linearGradient id="paint41_linear_2503_621" x1="294.482" y1="552.312" x2="293.058" y2="562.241" gradientUnits="userSpaceOnUse">
<stop stop-color="#42307D"/>
<stop offset="1" stop-color="#7F56D9"/>
</linearGradient>
<linearGradient id="paint42_linear_2503_621" x1="258.553" y1="531.989" x2="264.834" y2="567.522" gradientUnits="userSpaceOnUse">
<stop stop-color="#42307D"/>
<stop offset="1" stop-color="#7F56D9"/>
</linearGradient>
<linearGradient id="paint43_linear_2503_621" x1="278.953" y1="549.397" x2="277.822" y2="556.547" gradientUnits="userSpaceOnUse">
<stop stop-color="#42307D"/>
<stop offset="1" stop-color="#7F56D9"/>
</linearGradient>
<linearGradient id="paint44_linear_2503_621" x1="786.999" y1="618.764" x2="967.933" y2="619.199" gradientUnits="userSpaceOnUse">
<stop stop-color="#42307D"/>
<stop offset="1" stop-color="#7F56D9"/>
</linearGradient>
<linearGradient id="paint45_linear_2503_621" x1="887.581" y1="641.3" x2="921.456" y2="652.624" gradientUnits="userSpaceOnUse">
<stop stop-color="#42307D"/>
<stop offset="1" stop-color="#7F56D9"/>
</linearGradient>
<linearGradient id="paint46_linear_2503_621" x1="956.685" y1="579.688" x2="1052.44" y2="588.668" gradientUnits="userSpaceOnUse">
<stop stop-color="#42307D"/>
<stop offset="1" stop-color="#7F56D9"/>
</linearGradient>
<linearGradient id="paint47_linear_2503_621" x1="323.811" y1="578" x2="285.174" y2="699.575" gradientUnits="userSpaceOnUse">
<stop stop-color="#42307D"/>
<stop offset="1" stop-color="#7F56D9"/>
</linearGradient>
<linearGradient id="paint48_linear_2503_621" x1="806.691" y1="321.493" x2="851.43" y2="306.585" gradientUnits="userSpaceOnUse">
<stop stop-color="#42307D"/>
<stop offset="1" stop-color="#7F56D9"/>
</linearGradient>
<linearGradient id="paint49_linear_2503_621" x1="716.395" y1="465.291" x2="793.094" y2="489.446" gradientUnits="userSpaceOnUse">
<stop stop-color="#42307D"/>
<stop offset="1" stop-color="#7F56D9"/>
</linearGradient>
<linearGradient id="paint50_linear_2503_621" x1="372.207" y1="374.633" x2="475.533" y2="307.766" gradientUnits="userSpaceOnUse">
<stop stop-color="#42307D"/>
<stop offset="1" stop-color="#7F56D9"/>
</linearGradient>
<linearGradient id="paint51_linear_2503_621" x1="827.111" y1="475" x2="871.08" y2="569.139" gradientUnits="userSpaceOnUse">
<stop stop-color="#42307D"/>
<stop offset="1" stop-color="#7F56D9"/>
</linearGradient>
<linearGradient id="paint52_linear_2503_621" x1="850.999" y1="406.002" x2="893.294" y2="454.618" gradientUnits="userSpaceOnUse">
<stop stop-color="#42307D"/>
<stop offset="1" stop-color="#7F56D9"/>
</linearGradient>
<linearGradient id="paint53_linear_2503_621" x1="157.404" y1="584.392" x2="221.834" y2="583.319" gradientUnits="userSpaceOnUse">
<stop stop-color="#42307D"/>
<stop offset="1" stop-color="#7F56D9"/>
</linearGradient>
<linearGradient id="paint54_linear_2503_621" x1="243" y1="260.568" x2="307.43" y2="259.495" gradientUnits="userSpaceOnUse">
<stop stop-color="#42307D"/>
<stop offset="1" stop-color="#7F56D9"/>
</linearGradient>
<linearGradient id="paint55_linear_2503_621" x1="68.9979" y1="589.999" x2="61.4776" y2="694.506" gradientUnits="userSpaceOnUse">
<stop stop-color="#42307D"/>
<stop offset="1" stop-color="#7F56D9"/>
</linearGradient>
<linearGradient id="paint56_linear_2503_621" x1="954.006" y1="309.583" x2="956.224" y2="437.693" gradientUnits="userSpaceOnUse">
<stop stop-color="#42307D"/>
<stop offset="1" stop-color="#7F56D9"/>
</linearGradient>
<linearGradient id="paint57_linear_2503_621" x1="190" y1="406" x2="214.118" y2="433.53" gradientUnits="userSpaceOnUse">
<stop stop-color="#42307D"/>
<stop offset="1" stop-color="#7F56D9"/>
</linearGradient>
<linearGradient id="paint58_linear_2503_621" x1="793" y1="437" x2="817.118" y2="464.53" gradientUnits="userSpaceOnUse">
<stop stop-color="#42307D"/>
<stop offset="1" stop-color="#7F56D9"/>
</linearGradient>
<linearGradient id="paint59_linear_2503_621" x1="895" y1="566" x2="919.118" y2="593.53" gradientUnits="userSpaceOnUse">
<stop stop-color="#42307D"/>
<stop offset="1" stop-color="#7F56D9"/>
</linearGradient>
<linearGradient id="paint60_linear_2503_621" x1="89.8086" y1="513.934" x2="90.1724" y2="487.967" gradientUnits="userSpaceOnUse">
<stop stop-color="#42307D"/>
<stop offset="1" stop-color="#7F56D9"/>
</linearGradient>
<linearGradient id="paint61_linear_2503_621" x1="163.73" y1="574.163" x2="205.905" y2="435.404" gradientUnits="userSpaceOnUse">
<stop stop-color="#42307D"/>
<stop offset="1" stop-color="#7F56D9"/>
</linearGradient>
<linearGradient id="paint62_linear_2503_621" x1="140.794" y1="544.722" x2="142.435" y2="521.589" gradientUnits="userSpaceOnUse">
<stop stop-color="#42307D"/>
<stop offset="1" stop-color="#7F56D9"/>
</linearGradient>
<linearGradient id="paint63_linear_2503_621" x1="190.388" y1="543.385" x2="188.906" y2="525.573" gradientUnits="userSpaceOnUse">
<stop stop-color="#42307D"/>
<stop offset="1" stop-color="#7F56D9"/>
</linearGradient>
<linearGradient id="paint64_linear_2503_621" x1="205.621" y1="518.314" x2="209.916" y2="507.918" gradientUnits="userSpaceOnUse">
<stop stop-color="#42307D"/>
<stop offset="1" stop-color="#7F56D9"/>
</linearGradient>
<linearGradient id="paint65_linear_2503_621" x1="157.795" y1="460.46" x2="165.58" y2="433.359" gradientUnits="userSpaceOnUse">
<stop stop-color="#42307D"/>
<stop offset="1" stop-color="#7F56D9"/>
</linearGradient>
<linearGradient id="paint66_linear_2503_621" x1="469.998" y1="10.0573" x2="573.102" y2="85.6569" gradientUnits="userSpaceOnUse">
<stop stop-color="#42307D"/>
<stop offset="1" stop-color="#7F56D9"/>
</linearGradient>
</defs>
</svg>
