<svg width="1066" height="719" viewBox="0 0 1066 719" fill="none" xmlns="http://www.w3.org/2000/svg">
<path d="M748.459 90.3312C745.896 89.9162 741.176 89.9601 738.056 90.4582C730.96 91.6623 717.721 96.9503 710.17 101.636C707.008 103.57 704.277 105.14 704.049 105.001C703.897 104.909 703.787 103.38 703.968 101.715C704.245 97.4991 702.624 89.725 700.951 86.8253C700.106 85.4747 697.876 83.488 695.9 82.2825C692.631 80.2886 691.837 80.222 687.215 81.4738C681.001 83.112 675.915 87.0043 671.142 93.8022C664.796 102.668 665.822 102.354 658.22 97.717C648.718 91.921 641.198 90.5701 635.339 93.6777C629.742 96.5273 628.22 101.759 630.756 109.57C631.593 111.959 633.49 115.518 635.125 117.454C638.272 121.358 653.468 133.55 661.585 138.71C678.351 149.354 740.181 185.294 743.458 186.249C748.44 187.827 758.843 185.82 764.583 182.223C769.433 179.231 774.421 172.251 774.744 167.959C775.403 157.817 768.615 150.649 752.197 144.392C748.131 142.851 744.706 141.284 744.571 140.993C744.558 140.672 746.807 138.182 749.639 135.42C760.013 125.253 765.252 113.415 763.369 104.019C761.795 96.1689 757.2 91.9043 748.459 90.3312ZM756.841 102.752C760.619 110.067 755.38 121.905 743.364 133.054C737.578 138.607 737.038 139.321 737.051 141.522C737.239 144.977 737.771 145.302 751.402 150.484C759.459 153.52 761.376 154.48 764.484 157.42C768.746 161.377 769.909 165.114 768.378 169.504C766.645 174.398 762.724 177.748 756.324 179.69C745.99 182.782 749.034 184.118 707.255 158.738C686.912 146.433 664.956 133.354 658.356 129.641C644.926 122.076 640.724 118.364 637.082 111.34C635.877 109.04 635.019 105.488 635.187 103.503C635.321 100.035 635.46 99.8064 637.959 98.6164C642.497 96.4777 647.589 97.7047 656.711 103.269C662.564 106.84 665.258 108.065 666.284 107.752C667.111 107.421 670.239 104.004 673.218 99.9749C682.075 88.3609 688.782 84.2047 693.875 87.3114C697.22 89.3516 698.968 98.4561 697.548 106.255C696.668 111.46 696.736 112.546 698.332 113.519C699.928 114.493 701.537 113.908 709.333 109.164C720.92 102.138 724.537 100.482 734.243 97.7365C746.029 94.4864 753.41 96.0653 756.841 102.752Z" fill="url(#paint0_linear_2635_982)"/>
<path d="M685.792 162.975C681.537 164.137 674.31 168.29 673.15 170.192C671.897 172.247 674.084 173.79 677.221 173.093C684.014 171.704 692.405 165.129 690.483 162.808C690.09 162.256 687.966 162.317 685.792 162.975Z" fill="url(#paint1_linear_2635_982)"/>
<path d="M714.202 182.914C713.053 183.258 710.246 184.782 707.76 186.293C699.609 191.448 699.392 195.908 707.514 192.511C715.589 189.189 721.505 180.688 714.202 182.914Z" fill="url(#paint2_linear_2635_982)"/>
<path d="M645.32 144.343C642.352 144.934 636.337 148.468 635.316 150.142C634.341 151.74 635.308 153.061 637.491 153.244C641.827 153.488 651.569 146.067 648.984 144.49C648.376 144.119 646.742 144.062 645.32 144.343Z" fill="url(#paint3_linear_2635_982)"/>
<path d="M675.341 191.052C672.554 191.858 668.662 193.451 666.683 194.644C663.766 196.519 663.319 197.081 663.767 198.399C664.498 200.62 667.306 200.975 671.777 199.631C676.049 198.269 680.936 194.36 681.412 192.041C681.842 189.798 680.896 189.638 675.341 191.052Z" fill="url(#paint4_linear_2635_982)"/>
<path d="M640.066 170.055C638.647 169.816 632.632 173.351 631.564 175.101C631.193 175.71 631.324 176.52 631.856 176.845C633.681 177.958 636.467 177.152 639.603 174.576C643.169 171.636 643.3 170.567 640.066 170.055Z" fill="url(#paint5_linear_2635_982)"/>
<path d="M368.602 117.877C338.91 123.275 332.803 144.931 355.153 165.676C370.226 179.593 395.825 192.146 415.057 195.007C422.334 196.048 433.119 195.462 438.577 193.706C446.633 191.17 451.636 184.537 450.467 178.034C448.647 168.214 436.043 158.524 419.345 154.232C408.885 151.565 392.057 151.304 391.212 153.84C390.888 154.816 392.187 155.012 403.102 155.857C414.082 156.703 422.269 158.783 430.39 162.75C440.461 167.692 446.308 174.196 446.308 180.439C446.308 187.072 437.472 191.689 424.608 191.689C403.362 191.689 374.125 178.619 356.972 161.45C348.851 153.321 345.992 148.248 345.992 141.615C345.927 138.104 346.252 136.868 347.746 134.267C356.323 119.634 387.899 117.227 424.868 128.413C445.074 134.461 459.758 140.639 471.907 148.053C480.484 153.32 487.241 156.053 482.888 152.476C479.379 149.549 463.461 139.793 457.029 136.607C440.591 128.413 415.512 120.544 397.515 117.877C389.263 116.707 375.034 116.707 368.602 117.877Z" fill="url(#paint6_linear_2635_982)"/>
<path d="M388.809 139.73C383.546 140.511 378.478 143.112 376.854 145.778C374.84 149.03 375.035 153.647 377.374 157.289C381.532 163.922 393.552 170.946 406.156 174.132C412.263 175.693 422.529 176.604 423.179 175.563C423.828 174.523 422.919 174.197 417.331 173.417C402.063 171.336 382.117 160.541 379.972 153.257C378.868 149.68 379.972 147.664 384.196 145.583C386.924 144.217 388.549 143.957 395.891 143.697C405.052 143.372 410.574 144.152 422.269 147.209C436.823 151.046 454.04 158.59 465.41 166.133C473.142 171.206 482.238 180.115 484.902 185.123C488.41 191.691 487.111 198.064 481.263 203.072C469.504 213.152 445.399 215.818 416.357 210.16C401.673 207.299 396.93 205.608 370.422 193.642C367.043 192.146 364.184 191.106 363.989 191.301C363.015 192.211 364.899 193.902 371.006 197.479C383.676 205.023 400.504 211.136 416.681 214.062C441.566 218.68 461.902 217.509 475.871 210.616C482.108 207.494 486.006 204.308 488.41 200.275C489.905 197.674 490.165 196.504 490.165 192.342C490.165 188.244 489.84 186.814 488.215 183.562C485.552 178.229 475.741 168.475 467.814 163.207C443.775 147.339 407.975 136.674 388.809 139.73Z" fill="url(#paint7_linear_2635_982)"/>
<path d="M332.283 170.944C331.373 172.31 332.738 177.512 335.207 182.455C339.105 190.194 347.551 199.623 347.551 196.177C347.551 195.721 345.472 192.21 342.938 188.308C340.405 184.471 337.221 178.813 335.792 175.756C334.362 172.7 333.063 170.229 332.933 170.229C332.803 170.229 332.478 170.554 332.283 170.944Z" fill="url(#paint8_linear_2635_982)"/>
<path d="M505.108 185.189C504.913 185.514 505.238 187.465 505.823 189.416C506.797 192.798 506.797 193.318 505.758 196.44C505.173 198.325 503.808 201.317 502.769 203.138C500.69 206.845 500.365 208.601 501.859 208.601C503.029 208.601 506.342 204.178 508.421 199.821C510.63 195.204 510.501 191.432 508.032 187.595C506.017 184.343 505.758 184.148 505.108 185.189Z" fill="url(#paint9_linear_2635_982)"/>
<path d="M768.132 252.114C767.05 252.802 762.809 256.073 758.761 259.338L751.361 265.256L746.282 263.156C739.423 260.336 729.245 257.436 726.388 257.536C724.895 257.588 723.677 258.086 722.927 258.958C721.179 261.036 722.687 263.261 732.311 272.687C737.091 277.401 740.877 281.564 740.763 282.023C740.646 282.418 737.998 284.787 734.9 287.303C731.802 289.818 728.275 293.065 727.023 294.475C724.772 297.026 724.772 297.026 724.64 304.448C724.413 316.625 720.003 331.875 713.61 342.444C705.068 356.666 689.817 372.359 672.817 384.533C665.144 390.071 663.201 392.156 663.981 394.016C664.971 396.324 671.918 394.195 690.097 386.014C703.218 380.092 723.016 368.015 736.12 357.863C749.414 347.575 762.112 333.208 766.828 323.023C767.614 321.303 768.977 319.369 769.803 318.82C771.26 317.728 772.087 315.356 774.842 302.962L776.022 297.65L779.766 296.869C786.731 295.26 793.861 292.8 795.182 291.517C795.936 290.775 796.478 289.52 796.448 288.675C796.381 286.725 794.656 285.744 783.383 281.256C778.768 279.399 774.674 277.59 774.34 277.341C773.937 276.965 773.871 273.193 774.203 267.78C774.705 257.937 774.012 252.951 772.014 251.589C770.482 250.536 770.482 250.536 768.132 252.114ZM770.477 261.598C770.574 264.393 770.484 269.276 770.268 272.407L769.948 278.145L771.894 279.899C773.032 280.835 777.396 282.961 781.548 284.574C789.326 287.622 791.773 288.838 791.209 289.443C791.019 289.58 787.291 290.816 782.847 292.012C774.546 294.448 772.381 295.76 771.847 299.097C770.926 304.4 769.086 313.183 768.603 314.241C768.057 315.366 767.925 315.306 766.697 313.657C765.947 312.642 763.604 308.819 761.46 305.119C759.315 301.42 756.715 297.671 755.704 296.665C753.489 294.66 750.95 294.553 741.457 296.38C734.675 297.657 729.812 298.022 729.785 297.242C729.776 296.982 733.178 293.87 737.349 290.406C743.793 285.041 744.921 283.831 744.869 282.336C744.79 280.061 742.615 277.339 734.731 269.349C729.205 263.75 727.845 262.04 728.884 262.004C729.079 261.997 734.142 263.643 740.061 265.585L750.85 269.244L755.172 266.425C757.525 264.912 761.646 261.905 764.176 259.865C766.768 257.758 769.246 256.11 769.575 256.228C770.034 256.343 770.371 258.543 770.477 261.598ZM748.952 306.27C741.389 331.782 724.686 354.357 701.452 370.457C695.677 374.497 685.854 379.915 685.824 379.07C685.82 378.94 689.095 375.898 693.063 372.246C702.265 363.922 711.146 353.852 715.953 346.267C723.41 334.489 727.93 320.537 728.038 308.69L728.186 301.722L733.118 301.486C735.845 301.391 740.702 300.831 743.868 300.266C747.098 299.698 749.951 299.468 750.22 299.719C750.551 299.903 749.941 302.917 748.952 306.27ZM757.345 306.434C758.176 307.902 760.237 311.084 761.881 313.499C763.59 315.912 764.966 318.077 764.973 318.272C765 319.052 759.754 327.108 755.283 333.12C743.792 348.551 724.119 364.203 699.737 377.219C687.353 383.767 682.867 385.615 691.402 380.568C706.247 371.852 715.619 364.694 725.604 354.585C739.043 340.973 748.947 322.929 752.506 305.626C753.447 300.908 753.444 300.843 754.665 302.298C755.277 303.057 756.511 304.901 757.345 306.434Z" fill="url(#paint10_linear_2635_982)"/>
<path d="M708.127 280.167C708.006 280.431 707.755 286.296 707.603 293.134C707.232 308.634 705.904 319.027 702.616 331.05C699.906 340.97 699.654 343.061 701.017 343.013C702.9 342.948 705.646 337.777 708.399 329.091C710.629 322.181 711.536 316.488 711.847 306.717C712.35 293.164 710.09 276.78 708.127 280.167Z" fill="url(#paint11_linear_2635_982)"/>
<path d="M789.106 305.592C788.616 306.455 787.231 309.626 785.971 312.663C781.356 323.886 773.516 335.872 762.516 348.553C756.513 355.399 755.477 357.388 757.814 357.306C759.438 357.25 767.453 350.334 772.015 345.034C776.14 340.271 783.106 329.356 785.946 323.141C789.693 315.007 792.367 304.047 790.549 304.11C790.225 304.121 789.598 304.794 789.106 305.592Z" fill="url(#paint12_linear_2635_982)"/>
<path d="M685.79 357.534C683.039 360.688 682.583 362.526 684.466 362.46C685.7 362.417 690.25 356.793 690.2 355.363C690.141 353.673 688.35 354.517 685.79 357.534Z" fill="url(#paint13_linear_2635_982)"/>
<path d="M733.674 367.907C730.482 369.579 728.451 371.017 728.474 371.666C728.521 373.031 729.815 372.856 734.747 370.732C739.422 368.683 741.698 366.846 741.011 365.764C740.258 364.684 739.226 364.915 733.674 367.907Z" fill="url(#paint14_linear_2635_982)"/>
<path d="M237.865 343.042C235.137 348.043 235.562 353.982 239.178 360.913C246.812 375.446 269.804 386.638 291.858 386.497C298.06 386.447 297.841 386.364 297.531 388.828C297.131 391.837 299.259 393.352 303.209 392.838C305.791 392.424 306.321 392.605 308.564 394.837C311.928 398.186 314.292 403.374 315.36 409.652C316.13 414.623 316.089 416.014 314.923 431.101C314.178 440.202 314.557 443.292 316.844 447.814C320.416 455.017 326.363 457.953 336.319 457.449C338.442 457.287 345.329 456.185 351.649 454.85C366.637 451.774 368.54 451.529 373.414 451.633C378.483 451.675 383.015 453.866 387.258 458.105C391.744 462.57 394.364 467.334 397.366 476.306C399.401 482.371 400.123 483.934 401.03 484.083C402.534 484.284 402.529 482.606 401.023 476.163C399.087 467.785 397.278 464.04 392.402 457.694C388.679 452.842 387.429 451.658 384.485 450.009C377.069 445.806 372.052 445.725 353.983 449.411C338.368 452.616 333.572 453.177 328.794 452.204C323.979 451.178 321.388 448.795 319.545 443.554C318.318 439.952 318.303 434.918 319.558 421.849C320.615 410.843 318.336 401.431 313.105 395.259C311.453 393.403 309.596 391.374 309.021 390.907C308.112 390.198 308.096 389.729 308.962 388.707C310.693 386.664 310.89 384.041 309.411 381.98C308.159 380.237 308.121 380.184 311.816 374.97C325.18 355.929 330.538 332.868 324.444 320.591C319.11 309.931 308.565 308.055 297.927 315.852C292.159 320.073 288.194 325.802 284.451 335.294C282.725 339.575 281.013 343.206 280.583 343.275C280.137 343.434 276.976 342.262 273.458 340.704C257.724 333.828 242.375 334.841 237.865 343.042ZM250.19 341.158C256.072 340.217 261.409 341.189 270.349 344.618C274.993 346.407 279.538 347.947 280.513 347.968C283.551 348.189 285.464 346.175 287.285 341.025C289.445 335.231 293.141 328.014 295.543 325.009C298.329 321.648 303.946 317.775 307.291 316.975C316.124 314.796 321.621 321.338 321.664 333.875C321.711 344.97 315.686 362.424 307.622 374.699C305.892 377.302 303.889 379.86 303.203 380.353C301.462 381.603 289.094 381.756 281.823 380.652C271.014 378.965 260.659 374.791 252.316 368.852C248.099 365.875 242.714 358.374 241.568 353.993C239.773 347.036 242.925 342.291 250.19 341.158Z" fill="url(#paint15_linear_2635_982)"/>
<path d="M417.147 559.242C415.299 558.826 413.618 559.874 414.424 560.991C415.069 561.996 419.404 562.48 420.484 561.727C421.218 561.128 419.336 559.738 417.147 559.242Z" fill="url(#paint16_linear_2635_982)"/>
<path d="M343.375 513.85C342.88 514.219 341.908 515.84 341.24 517.594C339.358 522.227 339.028 522.473 335.412 522.093C329.836 521.457 329.44 523.163 334.111 527.369L336.942 529.898L335.416 534.7C334.531 537.333 334.008 539.902 334.286 540.412C334.869 541.849 338.349 540.946 342.008 538.423L345.322 536.055L347.342 537.701C348.814 538.885 349.655 539.155 350.528 538.812C351.619 538.383 351.671 537.626 351.144 534.405C350.456 530.279 350.742 529.528 353.97 526.942C356.868 524.602 356.552 523.351 352.915 523.115C351.44 522.959 349.895 522.675 349.575 522.452C349.202 522.192 348.251 520.261 347.465 518.207C345.84 514.062 344.8 512.941 343.375 513.85ZM345.351 521.014L345.908 522.829L344.289 522.652C342.851 522.442 342.728 522.278 343.104 520.716C343.342 519.693 343.612 518.851 343.723 518.691C344.095 518.157 344.848 519.237 345.351 521.014ZM346.153 529.976C344.889 531.79 344.798 531.806 342.773 530.394C341.387 529.428 340.773 528.604 340.969 527.869C341.424 525.966 342.046 525.528 344.171 525.661C347.052 525.846 347.827 527.575 346.153 529.976ZM337.761 526.109C337.575 526.375 337.176 526.494 336.856 526.271C336.59 526.085 336.509 525.632 336.695 525.366C336.918 525.046 337.334 525.018 337.6 525.204C337.92 525.427 337.984 525.789 337.761 526.109ZM340.774 535.422C337.95 537.655 337.417 537.284 338.818 534.138C339.576 532.368 339.794 532.282 341.02 533.136C342.3 534.028 342.279 534.172 340.774 535.422Z" fill="url(#paint17_linear_2635_982)"/>
<path d="M388.455 546.776C387.145 546.497 386.006 546.654 385.905 547.139C385.439 548.717 391.539 550.987 393.151 549.811C394.049 549.09 391.363 547.376 388.455 546.776Z" fill="url(#paint18_linear_2635_982)"/>
<path d="M374.937 540.605C372.61 539.854 371.726 539.873 371.349 540.64C370.856 541.803 371.479 542.158 376.615 543.993C378.639 544.612 380.167 544.805 380.502 544.325C381.171 543.364 379.002 541.932 374.937 540.605Z" fill="url(#paint19_linear_2635_982)"/>
<path d="M358.299 533.684C355.502 532.924 353.783 533.232 354.025 534.59C354.202 535.585 363.481 538.406 364.38 537.685C365.279 536.964 361.633 534.581 358.299 533.684Z" fill="url(#paint20_linear_2635_982)"/>
<path d="M350.92 540.751C349.973 541.2 351.763 545.222 353.757 547.247C357.533 551.147 356.918 546.12 353.057 542.002C352.246 541.12 351.356 540.579 350.92 540.751Z" fill="url(#paint21_linear_2635_982)"/>
<path d="M238.655 463.773C238.357 464.2 237.759 466.082 237.304 467.984C236.849 469.887 236.325 471.662 236.139 471.928C235.953 472.195 234.292 472.306 232.402 472.177C227.524 471.79 227.153 473.117 231.301 476.484L234.527 479.128L233.309 483.828C232.442 487.346 232.375 488.805 233.154 489.506C234.284 490.611 235.656 489.665 238.259 485.931L240.007 483.423L243.956 485.938C249.115 489.217 250.067 488.532 247.674 483.218C246.728 481.052 245.995 479.036 246.021 478.657C246.047 478.279 247.382 477.386 249.021 476.626C253.5 474.516 252.625 473.272 246.539 472.915L242.758 472.658L241.735 469.012C241.184 466.963 240.899 465.099 241.047 464.886C241.196 464.672 240.865 464.125 240.279 463.716C239.692 463.307 238.952 463.346 238.655 463.773ZM240.621 478.223C239.234 479.873 238.713 479.826 238.406 478.106C238.137 476.333 239.77 475.014 240.863 476.172C241.391 476.778 241.323 477.444 240.621 478.223ZM243.769 482.002C243.743 482.381 243.45 482.573 243.184 482.387C242.864 482.164 242.783 481.712 242.969 481.445C243.192 481.125 243.448 480.986 243.554 481.06C243.714 481.172 243.832 481.571 243.769 482.002Z" fill="url(#paint22_linear_2635_982)"/>
<path d="M319.718 519.954C317.199 519.704 317.68 520.832 321.145 523.247C323.063 524.585 324.758 525.449 324.907 525.235C325.985 523.688 322.508 520.155 319.718 519.954Z" fill="url(#paint23_linear_2635_982)"/>
<path d="M307.428 512.814C306.107 512.21 305.063 512.117 304.548 512.63C303.83 513.319 304.091 513.739 306.277 515.262C307.663 516.228 309.48 517.256 310.284 517.579C312.021 518.156 313.148 516.88 311.709 515.877C311.122 515.468 310.45 514.841 310.098 514.437C309.8 514.071 308.59 513.307 307.428 512.814Z" fill="url(#paint24_linear_2635_982)"/>
<path d="M381.822 567.202L378.613 568.057L375.893 565.368C372.416 561.835 369.282 559.968 368.325 560.887C367.937 561.33 367.851 563.727 368.228 566.367L368.794 571.122L365.91 571.965C364.313 572.438 362.802 573.129 362.579 573.449C362.059 574.196 364.137 575.645 367.696 577.015L370.594 578.084L371.449 582.881C372.663 589.434 373.755 589.799 377.229 584.928L379.885 581.23L382.378 581.858C385.803 582.739 386.615 581.006 384.341 577.677C382.297 574.588 382.264 573.613 384.458 570.465C386.837 567.051 385.957 566.041 381.822 567.202ZM374.727 568.519C375.122 569.429 375.011 569.589 373.563 569.848C372.078 570.161 372.009 570.033 371.589 567.68L371.101 565.199L372.7 566.314C373.606 566.945 374.486 567.955 374.727 568.519ZM378.761 573.867C378.873 574.5 378.582 575.486 378.099 576.18C377.02 577.727 374.128 577.218 373.087 575.303C372.275 573.627 372.849 572.918 375.367 572.373C377.613 571.878 378.47 572.238 378.761 573.867ZM375.632 581.992C374.851 583.112 374.798 583.075 374.455 581.409C374.176 580.104 374.329 579.657 374.995 579.724C376.31 579.769 376.562 580.658 375.632 581.992Z" fill="url(#paint25_linear_2635_982)"/>
<path d="M289.009 501.404C288.364 501.192 287.657 501.413 287.428 501.967C287.068 502.825 287.526 503.304 289.733 504.683C292.867 506.55 294.523 506.674 293.855 505.019C293.427 503.928 291.012 502.166 289.009 501.404Z" fill="url(#paint26_linear_2635_982)"/>
<path d="M272.275 491.326C271.95 491.337 271.455 491.706 271.158 492.133C270.823 492.613 271.58 493.458 274.086 495.204C277.497 497.581 279.51 497.875 278.703 495.965C278.222 494.837 273.126 491.126 272.275 491.326Z" fill="url(#paint27_linear_2635_982)"/>
<path d="M328.443 532.773C326.011 533.536 324.996 534.651 326.062 535.394C326.968 536.026 330.758 535.02 331.501 533.953C332.357 532.726 330.657 532.097 328.443 532.773Z" fill="url(#paint28_linear_2635_982)"/>
<path d="M359.417 554.123C358.636 555.244 362.017 561.643 363.193 561.432C364.551 561.189 364.345 558.984 362.775 556.464C361.222 554.034 360.049 553.216 359.417 554.123Z" fill="url(#paint29_linear_2635_982)"/>
<path d="M258.452 484.23C257.13 483.626 256.14 483.57 255.805 484.05C254.615 485.757 261.335 489.41 262.845 487.926C263.727 487.114 262.576 486.153 258.452 484.23Z" fill="url(#paint30_linear_2635_982)"/>
<path d="M319.051 536.135C316.156 536.654 312.746 538.478 312.907 539.383C313.229 541.193 320.494 539.519 322.093 537.225C323.06 535.838 322.218 535.568 319.051 536.135Z" fill="url(#paint31_linear_2635_982)"/>
<path d="M248.102 494.534C247.544 495.334 248.498 498.853 249.462 499.287C251.034 499.986 251.692 498.701 250.597 496.749C249.454 494.525 248.623 493.787 248.102 494.534Z" fill="url(#paint32_linear_2635_982)"/>
<path d="M356.051 570.088C352.713 570.218 354.032 572.644 357.44 572.641C358.377 572.66 359.319 572.444 359.542 572.124C360.026 571.431 357.675 570.03 356.051 570.088Z" fill="url(#paint33_linear_2635_982)"/>
<path d="M346.315 568.376C343.674 567.962 341.557 569.181 343.049 570.221C344.488 571.225 349.563 571.67 350.158 570.816C350.902 569.749 349.426 568.8 346.315 568.376Z" fill="url(#paint34_linear_2635_982)"/>
<path d="M252.447 504.776C251.575 505.119 252.281 510.923 253.347 511.666C254.573 512.52 255.432 510.265 254.684 508.158C253.528 504.816 253.267 504.396 252.447 504.776Z" fill="url(#paint35_linear_2635_982)"/>
<path d="M298.791 541.91C295.257 542.776 294.087 543.546 294.621 544.711C294.878 545.366 303.314 543.715 303.909 542.861C304.764 541.634 301.963 541.108 298.791 541.91Z" fill="url(#paint36_linear_2635_982)"/>
<path d="M254.611 519.285C253.867 520.352 254.896 524.557 256.085 525.465C257.524 526.468 258.081 524.874 257.347 522.064C256.613 519.253 255.466 518.058 254.611 519.285Z" fill="url(#paint37_linear_2635_982)"/>
<path d="M312.462 560.474C308.526 559.872 306.722 560.755 308.855 562.241C310.4 563.318 317.643 564.403 318.579 563.628C319.642 562.784 316.451 561.114 312.462 560.474Z" fill="url(#paint38_linear_2635_982)"/>
<path d="M285.624 545.577C282.228 545.905 278.419 547.848 278.661 549.206C278.902 550.563 279.642 550.524 284.368 548.744C287.22 547.72 288.427 546.897 288.314 546.263C288.201 545.63 287.376 545.451 285.624 545.577Z" fill="url(#paint39_linear_2635_982)"/>
<path d="M297.867 556.646C292.732 555.605 290.89 555.748 291.851 557.21C293.057 559.002 303.208 560.686 303.259 559.136C303.337 558.002 302.479 557.642 297.867 556.646Z" fill="url(#paint40_linear_2635_982)"/>
<path d="M267.215 540.516L264.746 541.332L262.421 538.76C261.188 537.346 259.562 535.816 258.816 535.296C256.843 533.921 255.713 536.225 256.427 539.973L257.029 543.087L253.281 543.805C250.929 544.226 249.327 544.933 249.078 545.631C248.606 546.65 249.011 547.091 253.227 549.791L257.816 552.752L257.639 555.165C256.924 564.258 260.245 566.652 263.039 559.008L264.226 555.713L265.835 556.359C270.571 558.313 271.253 558.471 271.774 557.724C272.071 557.297 271.306 555.099 270.073 552.892C267.504 548.169 267.429 547.482 269.288 544.814C272.077 540.813 271.334 539.265 267.215 540.516ZM260.797 542.225C260.611 542.492 260.318 542.685 260.212 542.61C260.052 542.499 259.971 542.046 259.997 541.668C260.06 541.237 260.316 541.098 260.582 541.283C260.902 541.506 261.02 541.905 260.797 542.225ZM263.765 546.83C263.877 547.464 263.363 548.77 262.656 549.784L261.318 551.705L260.802 548.808C260.367 546.365 260.521 545.917 261.59 545.632C263.096 545.176 263.507 545.382 263.765 546.83ZM257.207 548.285C257.054 548.733 256.388 548.665 255.535 548.071C254.256 547.179 254.224 546.998 255.293 546.713C256.672 546.326 257.541 547.011 257.207 548.285Z" fill="url(#paint41_linear_2635_982)"/>
<path d="M279.894 551.411C277.45 551.055 275.849 552.556 277.778 553.425C279.814 554.368 285.006 555.212 285.415 554.625C285.973 553.825 282.573 551.772 279.894 551.411Z" fill="url(#paint42_linear_2635_982)"/>
<path d="M793.216 615.255C795.513 623.794 799.983 631.081 807.484 638.199C814.229 644.6 818.247 646.98 826.685 649.614C831.508 651.145 834.091 651.446 841.627 651.252C850.265 651.03 850.911 651.106 853.858 653.007C865.23 660.485 885.453 660.149 905.702 652.225C923.995 645.042 948.803 628.725 961.869 615.239C966.344 610.618 967.321 609.306 967.112 608.392C966.654 606.702 965.705 607.324 958.293 613.906C941.051 629.43 921.023 642.222 903.545 648.924C890.166 654.142 876.513 655.965 866.206 653.977C862.091 653.117 855.448 650.575 855.382 649.795C855.374 649.519 857.317 648.228 859.672 646.88C864.698 643.946 866.981 641.634 869.079 637.534C871.263 633.248 870.967 629.026 868.214 625.786C865.369 622.549 863.737 621.717 860.101 621.581C855.959 621.411 852.285 623.299 848.987 627.246C844.621 632.508 843.671 638.234 846.165 643.825C846.849 645.371 847.167 646.926 846.809 647.303C845.915 648.245 835.796 648.138 830.986 647.066C816.974 644.07 803.889 632.728 797.147 617.82C795.777 614.729 794.33 612.191 794.007 612.154C792.805 611.909 792.599 612.788 793.216 615.255ZM855.033 626.355C857.795 624.767 862.765 624.915 864.652 626.705C868.331 630.197 867.728 635.178 862.851 640.223C858.826 644.465 852.914 646.916 851.027 645.125C848.668 642.887 847.799 637.852 849.029 634.004C850.352 630.154 851.776 628.37 855.033 626.355Z" fill="url(#paint43_linear_2635_982)"/>
<path d="M888.373 642.051C889.599 643.215 897.132 642.929 903.119 641.534C911.022 639.63 917.051 636.394 925.69 629.275C929.65 626.047 930.982 624.265 930.038 623.37C929.284 622.654 927.194 623.627 921.182 627.506C910.468 634.356 901.967 638.023 893.311 639.303C888.319 640.03 887.052 640.798 888.373 642.051Z" fill="url(#paint44_linear_2635_982)"/>
<path d="M977.473 558.929C977.644 560.166 979.722 563.928 983.852 570.534L986.736 575.243L982.46 585.606C977.536 597.503 977.118 599.077 978.392 600.286C979.901 601.719 982.629 600.544 989.935 595.206C993.769 592.395 997.199 590.009 997.656 589.905C998.615 589.651 1002.53 593.366 1008.56 600.338C1014.2 606.86 1014.9 607.162 1017.72 604.193C1018.7 603.157 1023.8 594.199 1028.96 584.318C1034.21 574.436 1039.51 564.598 1040.83 562.357C1043.65 557.595 1044.23 555.097 1042.82 554.122C1042.21 553.724 1038.17 553.736 1033.67 554.127C1029.17 554.519 1019.11 554.823 1011.29 554.749C987.427 554.581 985.497 554.63 982.608 554.935C979.72 555.239 977.288 557.14 977.473 558.929ZM994.474 558.492C1000.68 558.562 1009.79 558.604 1014.66 558.57C1019.53 558.537 1023.81 558.657 1024.14 558.786C1024.74 559.001 1021.47 560.372 1001.45 568.244C992.619 571.689 989.745 572.545 989.313 571.866C984.5 563.806 982.222 559.404 982.669 558.933C982.937 558.65 988.22 558.469 994.474 558.492ZM1012.74 567.585C1030.32 561.248 1033.24 560.437 1030.32 562.857C1020.51 570.926 1003.4 582.814 997.181 585.87C994.958 586.985 991.472 589.053 989.398 590.577C987.321 592.01 985.286 593.304 984.874 593.36C984.462 593.417 984.992 590.874 986.106 587.81C987.128 584.749 988.358 580.903 988.776 579.329L989.575 576.503L992.754 575.042C994.573 574.26 1003.54 570.857 1012.74 567.585ZM1007.34 583.955C1011.36 581.414 1031.53 566.964 1032.78 565.645C1033.99 564.464 1032.65 567.579 1029.19 574.151C1027.18 577.881 1023.43 585.518 1020.82 591.103C1018.25 596.64 1015.89 601.39 1015.63 601.672C1015.13 602.191 1013.53 600.578 1004.95 590.913C1003.34 589.115 1002.23 587.442 1002.5 587.159C1002.73 586.923 1004.94 585.442 1007.34 583.955Z" fill="url(#paint45_linear_2635_982)"/>
<path d="M350.242 645.02C349.402 645.372 345.946 648.23 342.495 651.437C339.045 654.645 335.339 657.748 334.225 658.285L332.176 659.285L327.454 648.02C322.782 636.875 322.707 636.695 320.79 636.16C316.846 634.995 313.874 637.157 303.411 648.869C299.697 652.962 296.417 656.239 296.162 656.135C295.907 656.031 295.737 647.718 295.854 637.736C295.946 627.694 295.909 618.691 295.747 617.632C295.171 614.07 291.261 611.975 287.902 613.383C285.563 614.363 282.234 618.365 270.827 633.714C264.48 642.292 258.378 650.275 257.199 651.332C253.075 655.456 252.61 652.833 254.563 634.614C256.928 611.994 256.931 605.441 254.459 607.112C253.3 607.88 252.571 611.355 250.377 626.646C247.155 648.568 247.68 656.379 252.476 658.737C256.115 660.522 260.204 656.483 274.116 637.69C288.226 618.53 289.484 617.158 290.363 619.255C290.615 619.854 290.677 626.732 290.501 634.555C290.061 656.72 290.494 661.117 293.408 662.855C295.676 664.229 298.399 662.313 305.991 653.846C315.306 643.601 317.793 641.291 318.899 641.743C319.495 641.987 320.625 644.683 322.431 650.337C326.802 663.792 329.273 666.49 335.09 664.052C338.989 662.418 341.51 660.022 347.439 652.465C352.315 646.264 353.18 643.788 350.242 645.02Z" fill="url(#paint46_linear_2635_982)"/>
<path d="M817.343 306.543C815.871 312.932 817.838 324.076 821.16 328.291C825.867 334.322 826.305 334.603 829.579 335.16C835.963 336.169 843.42 332.616 847.983 326.589C851.329 322.097 852.136 317.829 850.132 314.69C849.408 313.531 848.484 312.321 848.046 312.04C846.369 311.041 841.099 310.824 837.018 311.525L832.722 312.32L830.907 307.681C829.489 303.992 828.635 302.672 826.938 301.584C824.092 299.757 822.432 299.696 820.387 301.317C818.217 303.013 818.097 303.321 817.343 306.543ZM824.186 305.993C824.788 306.38 825.799 308.418 826.395 310.499C828.506 317.566 829.292 318.147 836.212 316.875C844.3 315.349 846.512 315.996 845.747 319.596C844.784 324.228 839.04 328.725 832.214 330.212L827.508 331.284L825.79 329.024C823.392 326.018 822.172 322.379 821.775 317.338C821.089 309.255 822.106 304.659 824.186 305.993Z" fill="url(#paint47_linear_2635_982)"/>
<path d="M762.384 394.484C759.563 403.095 763.181 412.75 771.172 417.878L775.058 420.371L769.045 429.02C758.638 444.035 746.275 456.558 733.071 465.455C728.938 468.284 725.539 470.812 725.598 471.081C725.849 472.015 729.383 470.963 733.544 468.692C747.746 461.13 764.269 445.254 775.365 428.443L780.492 420.693L784.034 420.11C796.493 417.914 806.744 406.273 812.1 388.172C814.122 381.287 816.055 371.41 817.603 360.207C818.764 351.534 818.788 348.847 817.803 348.215C816.872 347.618 815.666 351.785 813.397 363.992C807.91 392.895 801.923 405.959 790.966 412.438C788.023 414.255 783.505 415.756 782.684 415.229C782.465 415.089 782.558 414.222 782.9 413.207C783.263 412.281 783.832 408.864 784.227 405.72C785.04 399.757 784.345 394.217 782.297 390.664C780.696 387.861 776.591 385.227 773.704 385.15C769.102 384.977 764.197 389.009 762.384 394.484ZM771.91 390.716C773.808 389.926 776.267 391.272 777.848 393.985C780.099 397.823 779.873 407.327 777.424 413.553C776.836 414.951 776.496 415.119 775.082 414.674C770.709 413.181 766.653 406.255 766.692 400.413C766.656 396.376 769.099 391.845 771.91 390.716Z" fill="url(#paint48_linear_2635_982)"/>
<path d="M351.907 235.568C352.329 236.622 353.555 240.839 354.57 244.957C357.432 256.55 361.811 264.236 366.114 265.297C367.828 265.761 368.461 265.6 370.31 264.337C372.46 262.896 375.224 258.538 375.629 255.981C375.789 255.299 376.217 254.644 376.603 254.586C377.641 254.495 387.792 261.641 391.311 264.922C394.135 267.519 396.644 271.084 396.905 272.819C397.147 274.425 393.923 278.786 389.866 282.419C380.994 290.324 377.699 295.091 377.617 300.228C377.585 308.314 388.584 314.544 411.815 319.458C424.112 322.076 426.733 323.324 425.207 325.853C424.843 326.499 421.67 329.013 418.157 331.448C407.258 339.001 404.179 343.012 405.02 348.602C405.871 354.256 413.33 360.558 422.595 363.566C428.319 365.332 434.339 366.004 435.213 364.821C436.033 363.712 435.061 362.938 432.235 362.509C423.671 361.104 412.775 355.122 410.664 350.709C408.617 346.286 409.264 345.335 420.747 337.3C428.781 331.689 431.047 329.705 431.944 327.796C434.887 321.571 430.783 317.458 418.965 314.966C402.918 311.467 396.956 309.868 392.37 307.798C387.433 305.584 384.361 303.09 384.052 301.034C383.675 298.528 386.352 294.906 393.415 288.521C402.377 280.339 403.894 277.746 403.034 272.028C402.599 269.137 401.933 267.331 400.363 265.202C397.873 261.766 389.555 255.002 384.487 252.348L380.839 250.4L384.662 248.708C389.173 246.781 390.906 244.746 391.814 240.733C394.28 229.587 380.515 222.459 361.994 225.246C354.663 226.349 351.657 227.787 351.079 230.502C350.598 232.546 350.749 233.114 351.907 235.568ZM361.482 230.58C377.311 228.263 389.934 233.92 385.316 241.251C384.033 243.218 383.85 243.311 377.365 244.353C373.709 244.969 370.374 245.536 369.934 245.668C368.86 245.961 369.279 247.869 370.771 249.484C371.855 250.569 372.016 251.202 371.682 253.355C371.387 255.765 368.662 260.38 367.504 260.554C366.797 260.66 363.741 256.521 362.534 253.746C361.936 252.39 360.362 247.174 359.074 242.111C357.731 237.123 356.505 232.905 356.357 232.796C355.321 232.032 357.173 231.228 361.482 230.58Z" fill="url(#paint49_linear_2635_982)"/>
<path d="M845.751 493.37C844.137 493.344 841.521 494.171 838.724 495.702C836.324 496.976 834.186 498.046 834.051 498.101C833.917 498.157 833.075 495.958 832.201 493.3C830.447 487.894 828.394 485.503 824.784 484.602C822.16 483.956 817.853 485.638 815.718 488.091C810.899 493.725 811.609 506.07 817.34 515.715C821.187 522.081 821.254 521.708 812.611 532.032L805.2 540.842L805.072 534.954C804.843 524.925 799.398 514.754 794.244 514.836C792.22 514.885 790.359 516.628 789.881 519.057C789.287 521.817 789.858 528.78 790.909 531.333C791.973 534.07 796.114 540.692 798.578 543.7L800.233 545.658L796.816 548.891C789.029 556.253 773.377 565.821 758.178 572.594C750.304 575.999 748.979 576.829 749.861 577.596C751.772 579.26 769.489 572.266 781.887 564.952C789.771 560.348 799.381 553.366 801.772 550.619C803.608 548.51 805.131 548.542 809.568 550.767C817.96 554.881 829.742 554.705 836.532 550.27C840.416 547.787 840.681 542.931 836.959 541.071C833.232 539.119 824.469 538.993 814.959 540.715L811.683 541.312L814.836 537.591C816.538 535.537 819.416 531.835 821.227 529.359C824.422 524.897 824.556 524.842 828.43 523.558C834.559 521.564 839.499 518.363 844.49 513.224C849.993 507.496 851.655 504.201 851.426 499.517C851.227 495.292 849.487 493.432 845.751 493.37ZM847.52 500.342C847.595 504.115 842.857 510.251 836.703 514.55C830.939 518.499 825.648 520.619 824.954 519.239C824.684 518.659 823.426 516.443 822.217 514.269C818.823 508.47 817.728 505.275 817.339 500.28C816.918 494.826 818.188 491.19 821.175 489.738C825.359 487.603 827.904 491.112 828.343 499.513C828.825 507.865 830.447 508.673 835.321 503.173C837.2 501.015 841.218 498.477 844.023 497.729C846.009 497.13 847.51 498.177 847.52 500.342ZM833.383 547.356C831.143 548.941 819.575 549.562 815.023 548.359C812.913 547.815 811.212 547.196 811.193 546.921C811.086 545.362 825.83 543.367 831.414 544.176C835.231 544.739 835.801 545.667 833.383 547.356ZM798.982 526.117C799.805 528.041 800.601 531.579 800.759 533.872L801.091 538.042L799.5 537.001C796.26 534.784 793.364 526.831 794.253 522.346L794.695 520.057L796.067 521.252C796.851 521.934 798.152 524.101 798.982 526.117Z" fill="url(#paint50_linear_2635_982)"/>
<path d="M875.304 407.282C874.394 407.997 872.64 410.273 871.47 412.289L869.326 415.996L862.309 416.516C854.123 417.167 852.434 417.687 851.459 419.833C850.289 422.369 851.199 424.125 856.007 429.003C858.541 431.474 860.62 433.945 860.62 434.4C860.62 434.856 859.84 437.847 858.931 440.969C857.956 444.155 857.371 447.277 857.631 447.862C858.216 449.488 860.62 448.838 866.792 445.326C869.651 443.7 872.315 442.334 872.64 442.334C873.03 442.334 875.044 443.245 877.188 444.285C881.736 446.496 883.945 446.691 886.024 445.001C887.323 443.96 887.583 443.05 887.778 438.888L888.038 433.945L892.066 431.409C897.264 427.962 899.473 425.946 899.993 423.8C900.772 420.548 896.744 418.337 890.052 418.272C886.089 418.272 884.14 417.297 883.62 415.216C882.905 412.289 881.021 408.192 879.787 407.022C878.357 405.591 877.383 405.656 875.304 407.282ZM877.513 416.061C877.513 416.581 877.058 416.972 876.538 416.972C875.434 416.972 875.369 416.842 875.953 415.411C876.408 414.24 877.513 414.63 877.513 416.061ZM865.818 423.15C865.818 423.995 864.258 427.377 863.869 427.377C863.089 427.377 859.321 424.125 859.321 423.475C859.321 423.15 859.97 422.825 860.815 422.694C862.179 422.499 865.818 422.825 865.818 423.15ZM877.708 423.41C879.397 424.06 879.722 424.775 880.436 428.677C880.826 430.889 880.761 431.019 877.318 432.905L873.744 434.791L871.145 433.035L868.482 431.279L869.456 428.482C871.21 423.41 873.679 421.914 877.708 423.41ZM890.767 425.036C890.377 426.076 887.388 427.507 886.609 427.052C886.349 426.922 885.959 426.141 885.764 425.426C885.439 424.255 885.764 424.125 888.298 424.125C890.377 424.125 891.027 424.32 890.767 425.036ZM866.467 438.042C866.467 438.237 866.208 438.562 865.818 438.757C865.493 438.953 865.168 438.823 865.168 438.497C865.168 438.107 865.493 437.782 865.818 437.782C866.208 437.782 866.467 437.912 866.467 438.042Z" fill="url(#paint51_linear_2635_982)"/>
<path d="M174.028 566.616C173.989 567.772 174.602 570.58 175.392 572.773L176.849 576.8L172.73 582.504C167.958 589.188 167.269 590.816 168.284 592.943C169.472 595.47 171.401 595.905 178.229 595.365C181.751 595.016 184.981 595.016 185.329 595.309C185.677 595.602 187.465 598.124 189.268 600.83C191.079 603.627 193.092 606.084 193.707 606.262C195.328 606.861 196.377 604.602 197.663 597.618C198.259 594.384 198.929 591.466 199.138 591.218C199.389 590.919 201.382 589.964 203.558 588.993C208.178 586.936 209.749 585.371 209.794 582.691C209.834 581.027 209.304 580.242 206.245 577.414L202.63 574.034L203.282 569.318C203.99 563.122 203.869 560.134 202.561 558.354C200.575 555.665 196.289 557.324 191.932 562.404C189.381 565.437 187.38 566.3 185.453 565.359C182.753 564.022 178.405 562.826 176.714 563.018C174.699 563.19 174.122 563.978 174.028 566.616ZM182.168 570.577C182.566 570.911 182.572 571.511 182.238 571.908C181.527 572.754 181.385 572.72 180.667 571.351C180.064 570.25 181.073 569.656 182.168 570.577ZM180.065 584.089C180.712 584.633 182.296 588.004 182.045 588.302C181.543 588.899 176.629 589.689 176.131 589.271C175.883 589.061 176.052 588.355 176.496 587.625C177.225 586.455 179.816 583.88 180.065 584.089ZM187.917 575.158C189.502 574.284 190.259 574.495 193.705 576.46C195.648 577.585 195.706 577.719 194.933 581.568L194.076 585.516L191.059 586.375L188.001 587.283L186.488 584.738C183.735 580.13 184.18 577.278 187.917 575.158ZM197.568 566.21C198.113 567.178 197.284 570.386 196.434 570.69C196.167 570.805 195.319 570.601 194.646 570.29C193.541 569.785 193.651 569.453 195.282 567.514C196.62 565.923 197.188 565.551 197.568 566.21ZM191.88 593.178C192.029 593.304 192.111 593.712 192.009 594.136C191.949 594.51 191.641 594.675 191.392 594.466C191.093 594.215 191.054 593.757 191.263 593.508C191.514 593.21 191.78 593.095 191.88 593.178Z" fill="url(#paint52_linear_2635_982)"/>
<path d="M259.623 242.793C259.585 243.949 260.198 246.756 260.988 248.948L262.445 252.976L258.326 258.68C253.554 265.364 252.865 266.991 253.88 269.119C255.068 271.646 256.997 272.08 263.825 271.541C267.347 271.192 270.576 271.192 270.925 271.485C271.273 271.778 273.06 274.301 274.864 277.007C276.675 279.804 278.688 282.26 279.303 282.438C280.923 283.037 281.973 280.779 283.259 273.795C283.855 270.561 284.524 267.643 284.733 267.394C284.984 267.096 286.978 266.141 289.154 265.17C293.774 263.113 295.345 261.548 295.389 258.868C295.43 257.204 294.9 256.418 291.84 253.59L288.225 250.209L288.877 245.494C289.585 239.298 289.465 236.309 288.157 234.53C286.17 231.84 281.885 233.5 277.528 238.579C274.977 241.612 272.975 242.476 271.048 241.534C268.349 240.197 264 239.002 262.31 239.193C260.295 239.366 259.717 240.155 259.623 242.793ZM267.764 246.752C268.162 247.087 268.168 247.686 267.833 248.084C267.122 248.929 266.981 248.895 266.262 247.527C265.659 246.425 266.669 245.831 267.764 246.752ZM265.661 260.266C266.308 260.81 267.892 264.179 267.641 264.478C267.139 265.074 262.225 265.865 261.727 265.447C261.478 265.237 261.648 264.531 262.092 263.801C262.821 262.631 265.412 260.057 265.661 260.266ZM273.513 251.333C275.098 250.459 275.855 250.671 279.301 252.636C281.244 253.761 281.302 253.894 280.528 257.744L279.671 261.692L276.655 262.551L273.596 263.46L272.084 260.913C269.331 256.306 269.775 253.453 273.513 251.333ZM283.164 242.386C283.709 243.354 282.88 246.562 282.03 246.866C281.763 246.981 280.915 246.777 280.242 246.466C279.137 245.961 279.247 245.629 280.878 243.689C282.216 242.098 282.783 241.727 283.164 242.386ZM277.476 269.354C277.625 269.48 277.707 269.889 277.605 270.313C277.545 270.687 277.236 270.851 276.988 270.642C276.689 270.39 276.649 269.933 276.858 269.684C277.109 269.386 277.376 269.27 277.476 269.354Z" fill="url(#paint53_linear_2635_982)"/>
<path d="M122.256 610.969C120.895 611.088 118.562 611.956 117.052 612.851C114.743 614.214 114.077 615.076 112.558 618.605C111.024 621.99 110.814 623.299 111.029 626.64L111.345 630.642L106.381 631.504C100.049 632.69 92.0869 632.854 83.9317 632.045C78.6446 631.538 76.0343 630.916 69.251 628.466C64.7439 626.792 60.4266 624.98 59.6419 624.48C58.8797 623.92 57.7608 623.574 57.1603 623.697C56.1648 623.952 56.1195 624.074 56.7075 624.917C58.3949 627.278 62.1883 629.381 69.6415 632.079C76.2803 634.545 78.6853 635.161 84.8321 635.779C93.0255 636.672 100.805 636.439 108.209 635.166C113.295 634.349 113.295 634.349 114.326 636.05C116.038 638.906 121.537 644.625 125.546 647.641C132.818 653.255 140.767 656.485 156.855 660.379L160.037 661.145L160.686 664.994C162.472 675.3 173.381 686.983 185.379 691.439C193.967 694.629 206.351 695.621 219.048 694.093C226.149 693.262 230.671 692.097 231.078 691C231.441 690.024 230.026 689.915 220.984 690.373C204.757 691.144 197.484 690.385 188.348 686.992C178.116 683.191 171.087 677.112 167.222 668.67C164.008 661.649 164.205 661.305 171.156 661.251C188.184 661.124 201.355 652.905 199.2 643.779C197.837 637.931 192.179 635.066 183.457 635.781C177.542 636.22 170.903 639.166 166.822 643.061C164.486 645.246 163.313 647.099 161.597 650.972L159.33 655.957L154.939 655.089C152.55 654.618 147.442 653.068 143.544 651.62C132.825 647.638 125.228 642.527 120.228 636.022L118.006 633.047L122.001 631.062C126.581 628.808 130.934 624.737 132.067 621.689C133.063 619.006 132.314 615.051 130.538 613.49C128.563 611.716 125 610.67 122.256 610.969ZM128.392 618.52C128.393 621.503 124.723 625.413 119.983 627.537C116.77 628.911 116.206 628.563 115.786 625.215C115.335 621.579 117.764 617.278 120.932 616.027C124.411 614.683 128.354 616.009 128.392 618.52ZM194.226 643.735C194.784 644.845 195.047 646.191 194.843 646.74C193.507 650.336 185.914 654.731 179.255 655.865C175.614 656.525 166.846 656.806 165.628 656.354C165.263 656.218 165.608 654.542 166.332 652.592C168.755 646.068 175.89 641.226 184.307 640.398C189.835 639.884 192.986 640.916 194.226 643.735Z" fill="url(#paint54_linear_2635_982)"/>
<path d="M1004.23 338.051C994.04 333.983 978.931 335.483 967.822 341.647C963.905 343.868 962.993 343.972 959.346 342.191C954.621 339.933 944.476 338.208 940.238 339.029C936.289 339.767 934.051 344.018 935.657 347.718C937.004 350.786 944.06 358.733 949.355 363.261C951.707 365.177 952.629 367.032 952.929 371.106C955.559 398.451 979.95 416.268 1005.37 409.382C1013.68 407.159 1013.83 407.117 1022.08 410.482C1035.7 415.844 1044.58 414.792 1045.17 407.795C1045.5 403.461 1040.81 397.192 1034.33 393.474C1029.35 390.585 1028.99 390.139 1029.76 387.64C1034.35 372.358 1029 354.738 1017.02 345.767C1014.99 344.151 1012.49 342.276 1011.52 341.613C1010.6 340.857 1007.32 339.283 1004.23 338.051ZM1017.13 353.272C1021.82 358.443 1025.95 370.994 1025.43 378.52C1025.14 381.9 1024 386.151 1022.66 388.577C1019.86 393.617 1015.15 398.575 1013 398.721C1010.89 398.774 993.299 388.272 978.555 378.131C957.976 363.774 958.152 364.116 962.868 355.624C969.293 344.051 982.837 337.897 995.075 340.907C1002.4 342.655 1012.79 348.548 1017.13 353.272ZM957.79 353.781C954.888 359.007 954.495 359.277 952.629 358.242C950.112 356.843 943.895 350.461 941.833 347.363C941.118 346.233 940.983 344.937 941.667 344.585C943.626 343.474 954.744 344.764 957.915 346.525L960.899 348.182L957.79 353.781ZM1037.15 403.342C1038.6 405.124 1039.29 406.969 1038.74 407.518C1037 409.116 1031.44 408.352 1025.21 405.504L1019.4 403.009L1021.46 400.613C1026.23 395.324 1026.09 395.365 1030.47 397.799C1032.8 399.094 1035.79 401.611 1037.15 403.342ZM985.559 389.468C996.097 396.418 1004.86 402.385 1004.99 402.82C1005.41 404.033 998.645 404.793 991.93 404.361C982.552 403.672 972.253 397.831 966.388 389.935C962.513 384.608 958.462 374.545 959.499 372.678C959.758 372.212 961.395 372.999 963.198 374.366C964.907 375.682 975.021 382.518 985.559 389.468Z" fill="url(#paint55_linear_2635_982)"/>
<path d="M196.655 406.827C193.926 407.998 190.612 411.965 190.158 414.631C188.858 421.264 195.745 428.158 205.296 429.979C209.909 430.824 212.963 430.174 215.562 427.703C217.446 425.882 217.771 425.166 217.771 422.565C217.771 416.842 213.807 412.485 208.09 411.9C201.593 411.314 198.864 414.826 201.593 420.419C203.997 425.361 206.79 425.231 205.426 420.289C205.036 418.793 204.906 417.297 205.101 416.972C206.271 415.086 212.118 417.688 213.223 420.614C214.132 422.89 214.067 423.28 212.573 424.776C208.739 428.613 195.875 423.801 194.121 417.818C193.471 415.737 195.29 411.965 197.759 410.469C199.514 409.363 200.878 409.168 205.621 409.233C208.739 409.298 211.468 409.168 211.663 408.973C213.937 406.697 201.073 404.876 196.655 406.827Z" fill="url(#paint56_linear_2635_982)"/>
<path d="M799.655 437.827C796.926 438.998 793.612 442.965 793.158 445.631C791.858 452.264 798.745 459.158 808.296 460.979C812.909 461.824 815.963 461.174 818.562 458.703C820.446 456.882 820.771 456.166 820.771 453.565C820.771 447.842 816.807 443.485 811.09 442.9C804.593 442.314 801.864 445.826 804.593 451.419C806.997 456.361 809.79 456.231 808.426 451.289C808.036 449.793 807.906 448.297 808.101 447.972C809.271 446.086 815.118 448.688 816.223 451.614C817.132 453.89 817.067 454.28 815.573 455.776C811.739 459.613 798.875 454.801 797.121 448.818C796.471 446.737 798.29 442.965 800.759 441.469C802.514 440.363 803.878 440.168 808.621 440.233C811.739 440.298 814.468 440.168 814.663 439.973C816.937 437.697 804.073 435.876 799.655 437.827Z" fill="url(#paint57_linear_2635_982)"/>
<path d="M901.655 566.827C898.926 567.998 895.612 571.965 895.158 574.631C893.858 581.264 900.745 588.158 910.296 589.979C914.909 590.824 917.963 590.174 920.562 587.703C922.446 585.882 922.771 585.166 922.771 582.565C922.771 576.842 918.807 572.485 913.09 571.9C906.593 571.314 903.864 574.826 906.593 580.419C908.997 585.361 911.79 585.231 910.426 580.289C910.036 578.793 909.906 577.297 910.101 576.972C911.271 575.086 917.118 577.688 918.223 580.614C919.132 582.89 919.067 583.28 917.573 584.776C913.739 588.613 900.875 583.801 899.121 577.818C898.471 575.737 900.29 571.965 902.759 570.469C904.514 569.363 905.878 569.168 910.621 569.233C913.739 569.298 916.468 569.168 916.663 568.973C918.937 566.697 906.073 564.876 901.655 566.827Z" fill="url(#paint58_linear_2635_982)"/>
<path d="M89.1995 512.426C91.7729 513.528 92.0953 512.01 89.9826 508.702C87.2268 504.382 87.1378 498.132 89.8059 493.351C91.876 489.535 91.1873 488.019 88.1069 489.721C84.5208 491.837 82.4504 496.295 82.7238 501.351C83.089 506.774 85.4772 510.819 89.1995 512.426Z" fill="url(#paint59_linear_2635_982)"/>
<path d="M111.304 519.817C116.267 522.204 120.128 523.03 125.827 522.935C132.354 522.84 138.054 521.643 143.893 519.112C146.467 518.008 148.72 517.041 148.904 517.041C149.042 516.995 149.271 518.696 149.408 520.856C149.818 526.969 153.539 532.529 157.859 533.446C162.685 534.409 170.04 532.107 177.488 527.324C180.017 525.714 182.73 524.288 183.419 524.241C184.154 524.149 189.486 524.882 195.231 525.845C206.123 527.632 210.122 527.768 211.64 526.251C212.743 525.147 211.778 524.182 208.332 523.035C206.861 522.576 203.691 520.693 201.301 518.855C199.004 517.018 194.915 514.216 192.249 512.562C183.565 507.189 182.049 506.04 181.911 504.708C181.866 504.018 182.281 501.03 182.88 498.042C184.63 489.125 183.117 482.277 178.477 477.545C174.618 473.686 168.459 472.769 161.38 475.071L159.035 475.761L159.358 472.59C160.05 466.752 159.549 458.617 158.309 454.986C156.703 450.345 153.257 446.623 149.719 445.66C145.628 444.604 140.158 446.767 134.87 451.596L130.501 455.505L129.353 453.805C119.11 438.871 107.025 430.925 95.3963 431.528C91.4893 431.76 86.4324 433.693 84.3171 435.808C82.3398 437.785 80.269 442.888 80.0835 446.474C79.4356 455.85 86.6476 464.994 101.582 473.766C104.798 475.695 107.601 477.578 107.785 478.037C108.014 478.451 106.635 480.474 104.105 483.371C97.7588 490.636 96.2863 494.222 97.2025 500.748C98.256 508.516 104.09 516.465 111.304 519.817ZM101.659 504.837C98.6748 497.438 99.9179 492.979 107 484.886C113.622 477.345 113.439 476.886 102.503 470.272C97.8156 467.425 95.1047 465.357 91.2456 461.498C86.6513 456.996 86.0083 456.077 84.7689 452.63C80.4079 440.728 90.432 432.082 103.3 436.764C110.882 439.473 117.453 444.939 124.251 454.129C127.742 458.815 128.339 459.413 129.902 459.78C131.924 460.146 131.556 460.422 137.12 455.042C149.72 442.81 158.036 450.574 155.452 472.27C154.99 476.223 154.942 479.762 155.264 480.084C156.137 480.957 157.7 480.68 160.734 479.208C166.159 476.631 172.686 476.996 175.856 480.166C179.439 483.749 180.539 491.563 178.604 500.297C177.729 504.112 178.187 506.686 180.025 508.523C180.576 509.075 184.436 511.739 188.572 514.403C198.864 521.109 200.748 522.441 200.196 522.992C199.92 523.268 196.152 522.81 191.785 521.939C187.419 521.16 183.145 520.656 182.317 520.841C181.444 521.071 179.053 522.359 176.984 523.693C169.582 528.522 161.951 531.1 158.182 529.999C154.552 528.851 151.751 522.004 152.857 516.764C153.548 513.776 152.813 511.845 151.112 511.892C150.423 511.939 147.986 512.997 145.642 514.147C134.056 520.22 120.543 520.777 111.168 515.634C107.63 513.659 103.128 508.605 101.659 504.837Z" fill="url(#paint60_linear_2635_982)"/>
<path d="M131.522 533.412C132.625 533.319 135.245 532.904 137.314 532.398L141.129 531.523L142.691 534.647C144.298 538.002 146.044 539.472 147.055 538.46C147.377 538.138 147.424 537.173 147.148 536.254C146.873 535.427 146.277 532.899 145.91 530.693C144.763 525.04 143.936 524.857 135.431 528.584C131.615 530.194 128.535 531.712 128.535 531.988C128.535 532.999 129.683 533.504 131.522 533.412Z" fill="url(#paint61_linear_2635_982)"/>
<path d="M186.769 536.236C191.457 536.05 197.479 535.266 198.95 534.622C200.559 533.839 199.962 532.599 197.894 532.462C195.09 532.325 183.323 533.893 182.771 534.445C181.575 535.641 183.229 536.376 186.769 536.236Z" fill="url(#paint62_linear_2635_982)"/>
<path d="M201.258 512.374C207.692 515.404 210.403 515.725 209.118 513.244C208.521 512.095 199.146 507.411 197.032 507.228C193.861 506.908 196.387 509.986 201.258 512.374Z" fill="url(#paint63_linear_2635_982)"/>
<path d="M138.736 440.746C139.195 440.837 140.804 440.515 142.367 440.055C145.907 438.904 148.527 438.949 152.295 440.418C156.293 441.933 160.566 446.113 162.448 450.479C163.78 453.466 163.918 453.696 164.929 453.236C166.4 452.591 165.897 448.041 164.014 444.687C161.075 439.448 153.585 434.809 148.207 434.95C144.806 435.043 140.53 436.562 138.645 438.448C137.173 439.919 137.173 440.471 138.736 440.746Z" fill="url(#paint64_linear_2635_982)"/>
<path d="M504.45 2.41584C501.41 3.94723 497.844 7.74468 496.696 10.7616C494.854 15.6171 493.989 23.7157 494.99 27.8896C495.884 31.6208 495.566 31.9646 492.038 31.7404C485.138 31.3882 478.995 34.4661 477.913 38.8718C477.094 42.1444 478.486 46.5587 481.539 50.3743C484.39 53.9041 490.308 57.9689 493.798 58.8709C496.283 59.4791 496.437 59.8434 494.918 62.147C493.063 64.9992 493.328 66.9419 496.163 70.4084C499.904 74.8617 504.998 77.7197 512.921 79.8328C524.099 82.7036 534.678 82.2405 538.227 78.6479C539.483 77.4774 542.576 70.3157 543.413 66.8383C543.446 66.6966 544.719 66.9932 546.276 67.3556C548.336 67.8649 549.723 67.7998 551.684 67.0621C561.412 63.3256 574.082 43.4356 575.313 29.8991C575.732 25.5185 573.916 17.6615 571.876 15.0073C568.467 10.5415 562.366 9.06157 558.166 11.6067C555.361 13.2824 552.975 15.5931 550.309 19.2417C549.144 20.7917 548.044 22.0584 547.791 22.119C547.539 22.1795 546.639 20.6565 545.712 18.7388C542.699 12.3053 537.655 9.10088 532.35 10.1051C529.492 10.7235 529.335 10.6273 527.281 7.90988C525.133 5.08109 520.48 2.1171 516.849 1.18212C515.15 0.786772 507.68 0.839003 506.714 1.27108C506.54 1.37976 505.511 1.82699 504.45 2.41584ZM513.457 6.54278C517.235 6.97449 520.67 8.75924 523.118 11.449L525.239 13.8832L523.629 17.4792C521.599 22.1121 521.129 25.1673 521.715 29.8418C522.203 33.2693 522.041 33.7093 520.194 35.7572C516.946 39.2108 515.452 48.8646 517.011 55.6465C517.314 56.9113 517.398 58.0951 517.254 58.3303C517.125 58.6287 515.063 58.3874 512.672 57.8906C510.281 57.3937 506.738 57.1063 504.751 57.1813C498.287 57.5274 491.087 53.9704 486.116 48.0064C483.498 44.8891 482.532 41.9774 483.42 39.8253C484.37 37.6581 489.675 36.6538 494.929 37.668C499.286 38.5628 501.762 38.3034 502.248 36.9833C502.409 36.5433 501.965 33.5737 501.255 30.3332C499.236 20.5185 500.762 12.3949 505.334 8.89136C508.081 6.69462 509.899 6.19211 513.457 6.54278ZM535.206 14.7705C538.256 15.5105 540.869 19.164 542.656 25.2226C545.269 33.8919 547.003 33.8775 552.871 24.9137C557.668 17.6111 560.845 14.977 564.118 15.5299C566.824 15.951 568.55 18.4128 569.778 23.5353C570.915 28.2783 570.008 34.2472 567.091 41.0321C563.288 49.969 553.944 61.4379 549.584 62.483C547.563 62.9677 544.067 62.6019 543.901 61.9063C543.918 61.7014 543.843 59.7133 543.848 57.5052C543.881 52.3479 542.046 44.6958 539.891 40.9994C537.379 36.6529 533.702 33.8563 529.203 32.9285C525.476 32.1503 525.319 32.0541 525.228 30.0027C525.066 25.4271 526.755 20.2073 529.462 17.2846C532.376 14.1116 532.502 14.0813 535.206 14.7705ZM531.708 39.7512C534.447 41.7026 536.618 45.4622 537.815 50.4582C539.526 57.8725 538.313 69.5322 535.073 75.5253L533.501 78.4434L528.507 78.2363C518.456 77.8371 508.057 74.3115 502.193 69.364C499.004 66.6511 498.661 64.6603 501.132 63.2652C503.841 61.7463 506.867 61.8236 513.738 63.4531C520.248 64.9686 521.982 64.9542 522.801 63.3535C523.059 62.7567 522.869 59.4584 522.414 55.8893C521.447 48.23 521.71 43.7532 523.299 40.6301C524.28 38.5894 524.74 38.2785 526.774 38.1252C528.399 37.9362 529.938 38.5035 531.708 39.7512Z" fill="url(#paint65_linear_2635_982)"/>
<defs>
<linearGradient id="paint0_linear_2635_982" x1="666.928" y1="38.5799" x2="659.99" y2="193.194" gradientUnits="userSpaceOnUse">
<stop stop-color="#42307D"/>
<stop offset="1" stop-color="#7F56D9"/>
</linearGradient>
<linearGradient id="paint1_linear_2635_982" x1="681.152" y1="157.072" x2="689.142" y2="175.022" gradientUnits="userSpaceOnUse">
<stop stop-color="#42307D"/>
<stop offset="1" stop-color="#7F56D9"/>
</linearGradient>
<linearGradient id="paint2_linear_2635_982" x1="709.92" y1="178.368" x2="718.08" y2="192.849" gradientUnits="userSpaceOnUse">
<stop stop-color="#42307D"/>
<stop offset="1" stop-color="#7F56D9"/>
</linearGradient>
<linearGradient id="paint3_linear_2635_982" x1="641.535" y1="139.946" x2="647.936" y2="154.55" gradientUnits="userSpaceOnUse">
<stop stop-color="#42307D"/>
<stop offset="1" stop-color="#7F56D9"/>
</linearGradient>
<linearGradient id="paint4_linear_2635_982" x1="671.439" y1="184.447" x2="678.726" y2="203.172" gradientUnits="userSpaceOnUse">
<stop stop-color="#42307D"/>
<stop offset="1" stop-color="#7F56D9"/>
</linearGradient>
<linearGradient id="paint5_linear_2635_982" x1="636.373" y1="167.216" x2="641.224" y2="178.369" gradientUnits="userSpaceOnUse">
<stop stop-color="#42307D"/>
<stop offset="1" stop-color="#7F56D9"/>
</linearGradient>
<linearGradient id="paint6_linear_2635_982" x1="341.675" y1="117" x2="408.038" y2="237.494" gradientUnits="userSpaceOnUse">
<stop stop-color="#42307D"/>
<stop offset="1" stop-color="#7F56D9"/>
</linearGradient>
<linearGradient id="paint7_linear_2635_982" x1="363.745" y1="139.208" x2="432.968" y2="251.948" gradientUnits="userSpaceOnUse">
<stop stop-color="#42307D"/>
<stop offset="1" stop-color="#7F56D9"/>
</linearGradient>
<linearGradient id="paint8_linear_2635_982" x1="332" y1="170.229" x2="355.215" y2="183.761" gradientUnits="userSpaceOnUse">
<stop stop-color="#42307D"/>
<stop offset="1" stop-color="#7F56D9"/>
</linearGradient>
<linearGradient id="paint9_linear_2635_982" x1="500.934" y1="184.628" x2="516.779" y2="190.611" gradientUnits="userSpaceOnUse">
<stop stop-color="#42307D"/>
<stop offset="1" stop-color="#7F56D9"/>
</linearGradient>
<linearGradient id="paint10_linear_2635_982" x1="658.998" y1="254.735" x2="803.899" y2="385.901" gradientUnits="userSpaceOnUse">
<stop stop-color="#42307D"/>
<stop offset="1" stop-color="#7F56D9"/>
</linearGradient>
<linearGradient id="paint11_linear_2635_982" x1="698.059" y1="280.085" x2="723.404" y2="284.457" gradientUnits="userSpaceOnUse">
<stop stop-color="#42307D"/>
<stop offset="1" stop-color="#7F56D9"/>
</linearGradient>
<linearGradient id="paint12_linear_2635_982" x1="754.873" y1="305.351" x2="804.824" y2="337.622" gradientUnits="userSpaceOnUse">
<stop stop-color="#42307D"/>
<stop offset="1" stop-color="#7F56D9"/>
</linearGradient>
<linearGradient id="paint13_linear_2635_982" x1="683.085" y1="354.729" x2="691.067" y2="361.515" gradientUnits="userSpaceOnUse">
<stop stop-color="#42307D"/>
<stop offset="1" stop-color="#7F56D9"/>
</linearGradient>
<linearGradient id="paint14_linear_2635_982" x1="728.262" y1="365.58" x2="734.513" y2="376.159" gradientUnits="userSpaceOnUse">
<stop stop-color="#42307D"/>
<stop offset="1" stop-color="#7F56D9"/>
</linearGradient>
<linearGradient id="paint15_linear_2635_982" x1="229.442" y1="347.823" x2="396.556" y2="312.85" gradientUnits="userSpaceOnUse">
<stop stop-color="#42307D"/>
<stop offset="1" stop-color="#7F56D9"/>
</linearGradient>
<linearGradient id="paint16_linear_2635_982" x1="415.943" y1="557.678" x2="415.527" y2="563.918" gradientUnits="userSpaceOnUse">
<stop stop-color="#42307D"/>
<stop offset="1" stop-color="#7F56D9"/>
</linearGradient>
<linearGradient id="paint17_linear_2635_982" x1="339.741" y1="510.158" x2="348.16" y2="546.985" gradientUnits="userSpaceOnUse">
<stop stop-color="#42307D"/>
<stop offset="1" stop-color="#7F56D9"/>
</linearGradient>
<linearGradient id="paint18_linear_2635_982" x1="387.432" y1="544.899" x2="386.273" y2="550.889" gradientUnits="userSpaceOnUse">
<stop stop-color="#42307D"/>
<stop offset="1" stop-color="#7F56D9"/>
</linearGradient>
<linearGradient id="paint19_linear_2635_982" x1="373.081" y1="538.13" x2="371.482" y2="545.219" gradientUnits="userSpaceOnUse">
<stop stop-color="#42307D"/>
<stop offset="1" stop-color="#7F56D9"/>
</linearGradient>
<linearGradient id="paint20_linear_2635_982" x1="356.122" y1="531.002" x2="354.34" y2="538.692" gradientUnits="userSpaceOnUse">
<stop stop-color="#42307D"/>
<stop offset="1" stop-color="#7F56D9"/>
</linearGradient>
<linearGradient id="paint21_linear_2635_982" x1="351.081" y1="540.435" x2="349.877" y2="547.97" gradientUnits="userSpaceOnUse">
<stop stop-color="#42307D"/>
<stop offset="1" stop-color="#7F56D9"/>
</linearGradient>
<linearGradient id="paint22_linear_2635_982" x1="236.614" y1="461.162" x2="242.967" y2="496.224" gradientUnits="userSpaceOnUse">
<stop stop-color="#42307D"/>
<stop offset="1" stop-color="#7F56D9"/>
</linearGradient>
<linearGradient id="paint23_linear_2635_982" x1="319.192" y1="518.733" x2="317.683" y2="523.442" gradientUnits="userSpaceOnUse">
<stop stop-color="#42307D"/>
<stop offset="1" stop-color="#7F56D9"/>
</linearGradient>
<linearGradient id="paint24_linear_2635_982" x1="305.519" y1="511.166" x2="303.906" y2="516.493" gradientUnits="userSpaceOnUse">
<stop stop-color="#42307D"/>
<stop offset="1" stop-color="#7F56D9"/>
</linearGradient>
<linearGradient id="paint25_linear_2635_982" x1="371.058" y1="556.961" x2="376.198" y2="591.937" gradientUnits="userSpaceOnUse">
<stop stop-color="#42307D"/>
<stop offset="1" stop-color="#7F56D9"/>
</linearGradient>
<linearGradient id="paint26_linear_2635_982" x1="288.389" y1="500.549" x2="287.036" y2="505.397" gradientUnits="userSpaceOnUse">
<stop stop-color="#42307D"/>
<stop offset="1" stop-color="#7F56D9"/>
</linearGradient>
<linearGradient id="paint27_linear_2635_982" x1="272.146" y1="490.715" x2="270.534" y2="495.396" gradientUnits="userSpaceOnUse">
<stop stop-color="#42307D"/>
<stop offset="1" stop-color="#7F56D9"/>
</linearGradient>
<linearGradient id="paint28_linear_2635_982" x1="328.324" y1="530.647" x2="329.993" y2="537.235" gradientUnits="userSpaceOnUse">
<stop stop-color="#42307D"/>
<stop offset="1" stop-color="#7F56D9"/>
</linearGradient>
<linearGradient id="paint29_linear_2635_982" x1="359.891" y1="553.443" x2="359.533" y2="561.549" gradientUnits="userSpaceOnUse">
<stop stop-color="#42307D"/>
<stop offset="1" stop-color="#7F56D9"/>
</linearGradient>
<linearGradient id="paint30_linear_2635_982" x1="256.867" y1="482.526" x2="255.485" y2="488.072" gradientUnits="userSpaceOnUse">
<stop stop-color="#42307D"/>
<stop offset="1" stop-color="#7F56D9"/>
</linearGradient>
<linearGradient id="paint31_linear_2635_982" x1="317.435" y1="532.645" x2="320.473" y2="542.363" gradientUnits="userSpaceOnUse">
<stop stop-color="#42307D"/>
<stop offset="1" stop-color="#7F56D9"/>
</linearGradient>
<linearGradient id="paint32_linear_2635_982" x1="248.444" y1="494.044" x2="248.651" y2="500.01" gradientUnits="userSpaceOnUse">
<stop stop-color="#42307D"/>
<stop offset="1" stop-color="#7F56D9"/>
</linearGradient>
<linearGradient id="paint33_linear_2635_982" x1="355.606" y1="568.73" x2="355.269" y2="574.088" gradientUnits="userSpaceOnUse">
<stop stop-color="#42307D"/>
<stop offset="1" stop-color="#7F56D9"/>
</linearGradient>
<linearGradient id="paint34_linear_2635_982" x1="344.868" y1="565.997" x2="344.541" y2="573.597" gradientUnits="userSpaceOnUse">
<stop stop-color="#42307D"/>
<stop offset="1" stop-color="#7F56D9"/>
</linearGradient>
<linearGradient id="paint35_linear_2635_982" x1="252.65" y1="504.403" x2="254.023" y2="512.156" gradientUnits="userSpaceOnUse">
<stop stop-color="#42307D"/>
<stop offset="1" stop-color="#7F56D9"/>
</linearGradient>
<linearGradient id="paint36_linear_2635_982" x1="298.45" y1="538.248" x2="300.539" y2="548.365" gradientUnits="userSpaceOnUse">
<stop stop-color="#42307D"/>
<stop offset="1" stop-color="#7F56D9"/>
</linearGradient>
<linearGradient id="paint37_linear_2635_982" x1="255.148" y1="518.514" x2="256.055" y2="526.187" gradientUnits="userSpaceOnUse">
<stop stop-color="#42307D"/>
<stop offset="1" stop-color="#7F56D9"/>
</linearGradient>
<linearGradient id="paint38_linear_2635_982" x1="310.606" y1="557.16" x2="309.296" y2="566.302" gradientUnits="userSpaceOnUse">
<stop stop-color="#42307D"/>
<stop offset="1" stop-color="#7F56D9"/>
</linearGradient>
<linearGradient id="paint39_linear_2635_982" x1="283.106" y1="542.39" x2="286.233" y2="552.413" gradientUnits="userSpaceOnUse">
<stop stop-color="#42307D"/>
<stop offset="1" stop-color="#7F56D9"/>
</linearGradient>
<linearGradient id="paint40_linear_2635_982" x1="294.482" y1="552.312" x2="293.058" y2="562.241" gradientUnits="userSpaceOnUse">
<stop stop-color="#42307D"/>
<stop offset="1" stop-color="#7F56D9"/>
</linearGradient>
<linearGradient id="paint41_linear_2635_982" x1="258.553" y1="531.99" x2="264.834" y2="567.523" gradientUnits="userSpaceOnUse">
<stop stop-color="#42307D"/>
<stop offset="1" stop-color="#7F56D9"/>
</linearGradient>
<linearGradient id="paint42_linear_2635_982" x1="278.953" y1="549.397" x2="277.822" y2="556.547" gradientUnits="userSpaceOnUse">
<stop stop-color="#42307D"/>
<stop offset="1" stop-color="#7F56D9"/>
</linearGradient>
<linearGradient id="paint43_linear_2635_982" x1="786.999" y1="618.763" x2="967.933" y2="619.198" gradientUnits="userSpaceOnUse">
<stop stop-color="#42307D"/>
<stop offset="1" stop-color="#7F56D9"/>
</linearGradient>
<linearGradient id="paint44_linear_2635_982" x1="887.581" y1="641.301" x2="921.456" y2="652.625" gradientUnits="userSpaceOnUse">
<stop stop-color="#42307D"/>
<stop offset="1" stop-color="#7F56D9"/>
</linearGradient>
<linearGradient id="paint45_linear_2635_982" x1="956.685" y1="579.688" x2="1052.44" y2="588.668" gradientUnits="userSpaceOnUse">
<stop stop-color="#42307D"/>
<stop offset="1" stop-color="#7F56D9"/>
</linearGradient>
<linearGradient id="paint46_linear_2635_982" x1="323.811" y1="577.999" x2="285.174" y2="699.574" gradientUnits="userSpaceOnUse">
<stop stop-color="#42307D"/>
<stop offset="1" stop-color="#7F56D9"/>
</linearGradient>
<linearGradient id="paint47_linear_2635_982" x1="806.691" y1="321.494" x2="851.43" y2="306.586" gradientUnits="userSpaceOnUse">
<stop stop-color="#42307D"/>
<stop offset="1" stop-color="#7F56D9"/>
</linearGradient>
<linearGradient id="paint48_linear_2635_982" x1="716.395" y1="465.291" x2="793.094" y2="489.446" gradientUnits="userSpaceOnUse">
<stop stop-color="#42307D"/>
<stop offset="1" stop-color="#7F56D9"/>
</linearGradient>
<linearGradient id="paint49_linear_2635_982" x1="372.207" y1="374.633" x2="475.533" y2="307.766" gradientUnits="userSpaceOnUse">
<stop stop-color="#42307D"/>
<stop offset="1" stop-color="#7F56D9"/>
</linearGradient>
<linearGradient id="paint50_linear_2635_982" x1="827.111" y1="475.001" x2="871.08" y2="569.14" gradientUnits="userSpaceOnUse">
<stop stop-color="#42307D"/>
<stop offset="1" stop-color="#7F56D9"/>
</linearGradient>
<linearGradient id="paint51_linear_2635_982" x1="850.999" y1="406.003" x2="893.294" y2="454.619" gradientUnits="userSpaceOnUse">
<stop stop-color="#42307D"/>
<stop offset="1" stop-color="#7F56D9"/>
</linearGradient>
<linearGradient id="paint52_linear_2635_982" x1="157.404" y1="584.392" x2="221.834" y2="583.319" gradientUnits="userSpaceOnUse">
<stop stop-color="#42307D"/>
<stop offset="1" stop-color="#7F56D9"/>
</linearGradient>
<linearGradient id="paint53_linear_2635_982" x1="243" y1="260.569" x2="307.43" y2="259.496" gradientUnits="userSpaceOnUse">
<stop stop-color="#42307D"/>
<stop offset="1" stop-color="#7F56D9"/>
</linearGradient>
<linearGradient id="paint54_linear_2635_982" x1="68.9979" y1="589.999" x2="61.4776" y2="694.506" gradientUnits="userSpaceOnUse">
<stop stop-color="#42307D"/>
<stop offset="1" stop-color="#7F56D9"/>
</linearGradient>
<linearGradient id="paint55_linear_2635_982" x1="954.006" y1="309.583" x2="956.224" y2="437.693" gradientUnits="userSpaceOnUse">
<stop stop-color="#42307D"/>
<stop offset="1" stop-color="#7F56D9"/>
</linearGradient>
<linearGradient id="paint56_linear_2635_982" x1="190" y1="406" x2="214.118" y2="433.53" gradientUnits="userSpaceOnUse">
<stop stop-color="#42307D"/>
<stop offset="1" stop-color="#7F56D9"/>
</linearGradient>
<linearGradient id="paint57_linear_2635_982" x1="793" y1="437" x2="817.118" y2="464.53" gradientUnits="userSpaceOnUse">
<stop stop-color="#42307D"/>
<stop offset="1" stop-color="#7F56D9"/>
</linearGradient>
<linearGradient id="paint58_linear_2635_982" x1="895" y1="566" x2="919.118" y2="593.53" gradientUnits="userSpaceOnUse">
<stop stop-color="#42307D"/>
<stop offset="1" stop-color="#7F56D9"/>
</linearGradient>
<linearGradient id="paint59_linear_2635_982" x1="89.8088" y1="513.934" x2="90.1726" y2="487.967" gradientUnits="userSpaceOnUse">
<stop stop-color="#42307D"/>
<stop offset="1" stop-color="#7F56D9"/>
</linearGradient>
<linearGradient id="paint60_linear_2635_982" x1="163.73" y1="574.163" x2="205.905" y2="435.404" gradientUnits="userSpaceOnUse">
<stop stop-color="#42307D"/>
<stop offset="1" stop-color="#7F56D9"/>
</linearGradient>
<linearGradient id="paint61_linear_2635_982" x1="140.794" y1="544.722" x2="142.435" y2="521.589" gradientUnits="userSpaceOnUse">
<stop stop-color="#42307D"/>
<stop offset="1" stop-color="#7F56D9"/>
</linearGradient>
<linearGradient id="paint62_linear_2635_982" x1="190.388" y1="543.385" x2="188.906" y2="525.572" gradientUnits="userSpaceOnUse">
<stop stop-color="#42307D"/>
<stop offset="1" stop-color="#7F56D9"/>
</linearGradient>
<linearGradient id="paint63_linear_2635_982" x1="205.621" y1="518.314" x2="209.916" y2="507.918" gradientUnits="userSpaceOnUse">
<stop stop-color="#42307D"/>
<stop offset="1" stop-color="#7F56D9"/>
</linearGradient>
<linearGradient id="paint64_linear_2635_982" x1="157.795" y1="460.459" x2="165.58" y2="433.358" gradientUnits="userSpaceOnUse">
<stop stop-color="#42307D"/>
<stop offset="1" stop-color="#7F56D9"/>
</linearGradient>
<linearGradient id="paint65_linear_2635_982" x1="469.998" y1="10.058" x2="573.102" y2="85.6576" gradientUnits="userSpaceOnUse">
<stop stop-color="#42307D"/>
<stop offset="1" stop-color="#7F56D9"/>
</linearGradient>
</defs>
</svg>
